<svg width="620" height="311" xmlns="http://www.w3.org/2000/svg" xmlns:xlink="http://www.w3.org/1999/xlink" overflow="hidden"><defs><clipPath id="clip0"><rect x="0" y="0" width="620" height="311"/></clipPath><clipPath id="clip1"><path d="M624.125 433.719 624.125-45.5914-4.57422-45.5914-4.57422 433.719 624.125 433.719"/></clipPath><clipPath id="clip2"><path d="M624.125 433.719 624.125-45.5914-4.57422-45.5914-4.57422 433.719 624.125 433.719"/></clipPath><clipPath id="clip3"><path d="M624.125 433.719 624.125-45.5914-4.57422-45.5914-4.57422 433.719 624.125 433.719"/></clipPath></defs><g clip-path="url(#clip0)"><g clip-path="url(#clip1)"><path d="M167.013 51.3438 167.013 198.09" stroke="#000000" stroke-width="0.598761" stroke-linecap="round" stroke-linejoin="round" fill="none" transform="matrix(-1.84043e-16 -1.00188 1 -1.83697e-16 0.315659 311)"/><path d="M109.981 63.5685 109.981 67.66" stroke="#FF0000" stroke-width="0.598761" stroke-linecap="round" stroke-linejoin="round" fill="none" transform="matrix(-1.84043e-16 -1.00188 1 -1.83697e-16 0.315659 311)"/><path d="M109.981 181.824 109.981 185.865" stroke="#00DD00" stroke-width="0.598761" stroke-linecap="round" stroke-linejoin="round" fill="none" transform="matrix(-1.84043e-16 -1.00188 1 -1.83697e-16 0.315659 311)"/><path d="M167.013 198.09 20.2664 198.09" stroke="#000000" stroke-width="0.598761" stroke-linecap="round" stroke-linejoin="round" fill="none" transform="matrix(-1.84043e-16 -1.00188 1 -1.83697e-16 0.315659 311)"/><path d="M20.2664 183.82 20.2664 183.82" stroke="#00DD00" stroke-width="0.598761" stroke-linecap="round" stroke-linejoin="round" fill="none" transform="matrix(-1.84043e-16 -1.00188 1 -1.83697e-16 0.315659 311)"/><path d="M22.7113 183.82 22.7113 183.82" stroke="#00DD00" stroke-width="0.598761" stroke-linecap="round" stroke-linejoin="round" fill="none" transform="matrix(-1.84043e-16 -1.00188 1 -1.83697e-16 0.315659 311)"/><path d="M25.1563 183.82 25.1563 183.82" stroke="#00DD00" stroke-width="0.598761" stroke-linecap="round" stroke-linejoin="round" fill="none" transform="matrix(-1.84043e-16 -1.00188 1 -1.83697e-16 0.315659 311)"/><path d="M27.6012 183.82 27.6012 183.82" stroke="#00DD00" stroke-width="0.598761" stroke-linecap="round" stroke-linejoin="round" fill="none" transform="matrix(-1.84043e-16 -1.00188 1 -1.83697e-16 0.315659 311)"/><path d="M30.0462 183.82 30.0462 183.82" stroke="#00DD00" stroke-width="0.598761" stroke-linecap="round" stroke-linejoin="round" fill="none" transform="matrix(-1.84043e-16 -1.00188 1 -1.83697e-16 0.315659 311)"/><path d="M32.4911 183.82 32.4911 183.82" stroke="#00DD00" stroke-width="0.598761" stroke-linecap="round" stroke-linejoin="round" fill="none" transform="matrix(-1.84043e-16 -1.00188 1 -1.83697e-16 0.315659 311)"/><path d="M34.9361 183.82 34.9361 183.82" stroke="#00DD00" stroke-width="0.598761" stroke-linecap="round" stroke-linejoin="round" fill="none" transform="matrix(-1.84043e-16 -1.00188 1 -1.83697e-16 0.315659 311)"/><path d="M37.381 183.82 37.381 183.82" stroke="#00DD00" stroke-width="0.598761" stroke-linecap="round" stroke-linejoin="round" fill="none" transform="matrix(-1.84043e-16 -1.00188 1 -1.83697e-16 0.315659 311)"/><path d="M39.8259 183.82 39.8259 183.82" stroke="#00DD00" stroke-width="0.598761" stroke-linecap="round" stroke-linejoin="round" fill="none" transform="matrix(-1.84043e-16 -1.00188 1 -1.83697e-16 0.315659 311)"/><path d="M42.2709 183.82 42.2709 183.82" stroke="#00DD00" stroke-width="0.598761" stroke-linecap="round" stroke-linejoin="round" fill="none" transform="matrix(-1.84043e-16 -1.00188 1 -1.83697e-16 0.315659 311)"/><path d="M44.7158 183.82 44.7158 183.82" stroke="#00DD00" stroke-width="0.598761" stroke-linecap="round" stroke-linejoin="round" fill="none" transform="matrix(-1.84043e-16 -1.00188 1 -1.83697e-16 0.315659 311)"/><path d="M47.1608 183.82 47.1608 183.82" stroke="#00DD00" stroke-width="0.598761" stroke-linecap="round" stroke-linejoin="round" fill="none" transform="matrix(-1.84043e-16 -1.00188 1 -1.83697e-16 0.315659 311)"/><path d="M49.6057 183.82 49.6057 183.82" stroke="#00DD00" stroke-width="0.598761" stroke-linecap="round" stroke-linejoin="round" fill="none" transform="matrix(-1.84043e-16 -1.00188 1 -1.83697e-16 0.315659 311)"/><path d="M52.0506 183.82 52.0506 183.82" stroke="#00DD00" stroke-width="0.598761" stroke-linecap="round" stroke-linejoin="round" fill="none" transform="matrix(-1.84043e-16 -1.00188 1 -1.83697e-16 0.315659 311)"/><path d="M54.4956 183.82 54.4956 183.82" stroke="#00DD00" stroke-width="0.598761" stroke-linecap="round" stroke-linejoin="round" fill="none" transform="matrix(-1.84043e-16 -1.00188 1 -1.83697e-16 0.315659 311)"/><path d="M56.9405 183.82 56.9405 183.82" stroke="#00DD00" stroke-width="0.598761" stroke-linecap="round" stroke-linejoin="round" fill="none" transform="matrix(-1.84043e-16 -1.00188 1 -1.83697e-16 0.315659 311)"/><path d="M59.3855 183.82 59.3855 183.82" stroke="#00DD00" stroke-width="0.598761" stroke-linecap="round" stroke-linejoin="round" fill="none" transform="matrix(-1.84043e-16 -1.00188 1 -1.83697e-16 0.315659 311)"/><path d="M61.8803 183.82 61.8803 183.82" stroke="#00DD00" stroke-width="0.598761" stroke-linecap="round" stroke-linejoin="round" fill="none" transform="matrix(-1.84043e-16 -1.00188 1 -1.83697e-16 0.315659 311)"/><path d="M64.3252 183.82 64.3252 183.82" stroke="#00DD00" stroke-width="0.598761" stroke-linecap="round" stroke-linejoin="round" fill="none" transform="matrix(-1.84043e-16 -1.00188 1 -1.83697e-16 0.315659 311)"/><path d="M66.7702 183.82 66.7702 183.82" stroke="#00DD00" stroke-width="0.598761" stroke-linecap="round" stroke-linejoin="round" fill="none" transform="matrix(-1.84043e-16 -1.00188 1 -1.83697e-16 0.315659 311)"/><path d="M69.2151 183.82 69.2151 183.82" stroke="#00DD00" stroke-width="0.598761" stroke-linecap="round" stroke-linejoin="round" fill="none" transform="matrix(-1.84043e-16 -1.00188 1 -1.83697e-16 0.315659 311)"/><path d="M71.6601 183.82 71.6601 183.82" stroke="#00DD00" stroke-width="0.598761" stroke-linecap="round" stroke-linejoin="round" fill="none" transform="matrix(-1.84043e-16 -1.00188 1 -1.83697e-16 0.315659 311)"/><path d="M74.105 183.82 74.105 183.82" stroke="#00DD00" stroke-width="0.598761" stroke-linecap="round" stroke-linejoin="round" fill="none" transform="matrix(-1.84043e-16 -1.00188 1 -1.83697e-16 0.315659 311)"/><path d="M76.55 183.82 76.55 183.82" stroke="#00DD00" stroke-width="0.598761" stroke-linecap="round" stroke-linejoin="round" fill="none" transform="matrix(-1.84043e-16 -1.00188 1 -1.83697e-16 0.315659 311)"/><path d="M78.9949 183.82 78.9949 183.82" stroke="#00DD00" stroke-width="0.598761" stroke-linecap="round" stroke-linejoin="round" fill="none" transform="matrix(-1.84043e-16 -1.00188 1 -1.83697e-16 0.315659 311)"/><path d="M81.4398 183.82 81.4398 183.82" stroke="#00DD00" stroke-width="0.598761" stroke-linecap="round" stroke-linejoin="round" fill="none" transform="matrix(-1.84043e-16 -1.00188 1 -1.83697e-16 0.315659 311)"/><path d="M83.8848 183.82 83.8848 183.82" stroke="#00DD00" stroke-width="0.598761" stroke-linecap="round" stroke-linejoin="round" fill="none" transform="matrix(-1.84043e-16 -1.00188 1 -1.83697e-16 0.315659 311)"/><path d="M86.3297 183.82 86.3297 183.82" stroke="#00DD00" stroke-width="0.598761" stroke-linecap="round" stroke-linejoin="round" fill="none" transform="matrix(-1.84043e-16 -1.00188 1 -1.83697e-16 0.315659 311)"/><path d="M88.7747 183.82 88.7747 183.82" stroke="#00DD00" stroke-width="0.598761" stroke-linecap="round" stroke-linejoin="round" fill="none" transform="matrix(-1.84043e-16 -1.00188 1 -1.83697e-16 0.315659 311)"/><path d="M91.2196 183.82 91.2196 183.82" stroke="#00DD00" stroke-width="0.598761" stroke-linecap="round" stroke-linejoin="round" fill="none" transform="matrix(-1.84043e-16 -1.00188 1 -1.83697e-16 0.315659 311)"/><path d="M93.6645 183.82 93.6645 183.82" stroke="#00DD00" stroke-width="0.598761" stroke-linecap="round" stroke-linejoin="round" fill="none" transform="matrix(-1.84043e-16 -1.00188 1 -1.83697e-16 0.315659 311)"/><path d="M96.1095 183.82 96.1095 183.82" stroke="#00DD00" stroke-width="0.598761" stroke-linecap="round" stroke-linejoin="round" fill="none" transform="matrix(-1.84043e-16 -1.00188 1 -1.83697e-16 0.315659 311)"/><path d="M98.5544 183.82 98.5544 183.82" stroke="#00DD00" stroke-width="0.598761" stroke-linecap="round" stroke-linejoin="round" fill="none" transform="matrix(-1.84043e-16 -1.00188 1 -1.83697e-16 0.315659 311)"/><path d="M100.999 183.82 100.999 183.82" stroke="#00DD00" stroke-width="0.598761" stroke-linecap="round" stroke-linejoin="round" fill="none" transform="matrix(-1.84043e-16 -1.00188 1 -1.83697e-16 0.315659 311)"/><path d="M103.444 183.82 103.444 183.82" stroke="#00DD00" stroke-width="0.598761" stroke-linecap="round" stroke-linejoin="round" fill="none" transform="matrix(-1.84043e-16 -1.00188 1 -1.83697e-16 0.315659 311)"/><path d="M105.889 183.82 105.889 183.82" stroke="#00DD00" stroke-width="0.598761" stroke-linecap="round" stroke-linejoin="round" fill="none" transform="matrix(-1.84043e-16 -1.00188 1 -1.83697e-16 0.315659 311)"/><path d="M108.334 183.82 108.334 183.82" stroke="#00DD00" stroke-width="0.598761" stroke-linecap="round" stroke-linejoin="round" fill="none" transform="matrix(-1.84043e-16 -1.00188 1 -1.83697e-16 0.315659 311)"/><path d="M110.779 183.82 110.779 183.82" stroke="#00DD00" stroke-width="0.598761" stroke-linecap="round" stroke-linejoin="round" fill="none" transform="matrix(-1.84043e-16 -1.00188 1 -1.83697e-16 0.315659 311)"/><path d="M113.224 183.82 113.224 183.82" stroke="#00DD00" stroke-width="0.598761" stroke-linecap="round" stroke-linejoin="round" fill="none" transform="matrix(-1.84043e-16 -1.00188 1 -1.83697e-16 0.315659 311)"/><path d="M115.669 183.82 115.669 183.82" stroke="#00DD00" stroke-width="0.598761" stroke-linecap="round" stroke-linejoin="round" fill="none" transform="matrix(-1.84043e-16 -1.00188 1 -1.83697e-16 0.315659 311)"/><path d="M118.114 183.82 118.114 183.82" stroke="#00DD00" stroke-width="0.598761" stroke-linecap="round" stroke-linejoin="round" fill="none" transform="matrix(-1.84043e-16 -1.00188 1 -1.83697e-16 0.315659 311)"/><path d="M120.559 183.82 120.559 183.82" stroke="#00DD00" stroke-width="0.598761" stroke-linecap="round" stroke-linejoin="round" fill="none" transform="matrix(-1.84043e-16 -1.00188 1 -1.83697e-16 0.315659 311)"/><path d="M123.004 183.82 123.004 183.82" stroke="#00DD00" stroke-width="0.598761" stroke-linecap="round" stroke-linejoin="round" fill="none" transform="matrix(-1.84043e-16 -1.00188 1 -1.83697e-16 0.315659 311)"/><path d="M125.449 183.82 125.449 183.82" stroke="#00DD00" stroke-width="0.598761" stroke-linecap="round" stroke-linejoin="round" fill="none" transform="matrix(-1.84043e-16 -1.00188 1 -1.83697e-16 0.315659 311)"/><path d="M127.894 183.82 127.894 183.82" stroke="#00DD00" stroke-width="0.598761" stroke-linecap="round" stroke-linejoin="round" fill="none" transform="matrix(-1.84043e-16 -1.00188 1 -1.83697e-16 0.315659 311)"/><path d="M130.339 183.82 130.339 183.82" stroke="#00DD00" stroke-width="0.598761" stroke-linecap="round" stroke-linejoin="round" fill="none" transform="matrix(-1.84043e-16 -1.00188 1 -1.83697e-16 0.315659 311)"/><path d="M132.784 183.82 132.784 183.82" stroke="#00DD00" stroke-width="0.598761" stroke-linecap="round" stroke-linejoin="round" fill="none" transform="matrix(-1.84043e-16 -1.00188 1 -1.83697e-16 0.315659 311)"/><path d="M135.229 183.82 135.229 183.82" stroke="#00DD00" stroke-width="0.598761" stroke-linecap="round" stroke-linejoin="round" fill="none" transform="matrix(-1.84043e-16 -1.00188 1 -1.83697e-16 0.315659 311)"/><path d="M137.673 183.82 137.673 183.82" stroke="#00DD00" stroke-width="0.598761" stroke-linecap="round" stroke-linejoin="round" fill="none" transform="matrix(-1.84043e-16 -1.00188 1 -1.83697e-16 0.315659 311)"/><path d="M140.118 183.82 140.118 183.82" stroke="#00DD00" stroke-width="0.598761" stroke-linecap="round" stroke-linejoin="round" fill="none" transform="matrix(-1.84043e-16 -1.00188 1 -1.83697e-16 0.315659 311)"/><path d="M142.563 183.82 142.563 183.82" stroke="#00DD00" stroke-width="0.598761" stroke-linecap="round" stroke-linejoin="round" fill="none" transform="matrix(-1.84043e-16 -1.00188 1 -1.83697e-16 0.315659 311)"/><path d="M145.008 183.82 145.008 183.82" stroke="#00DD00" stroke-width="0.598761" stroke-linecap="round" stroke-linejoin="round" fill="none" transform="matrix(-1.84043e-16 -1.00188 1 -1.83697e-16 0.315659 311)"/><path d="M147.453 183.82 147.453 183.82" stroke="#00DD00" stroke-width="0.598761" stroke-linecap="round" stroke-linejoin="round" fill="none" transform="matrix(-1.84043e-16 -1.00188 1 -1.83697e-16 0.315659 311)"/><path d="M149.898 183.82 149.898 183.82" stroke="#00DD00" stroke-width="0.598761" stroke-linecap="round" stroke-linejoin="round" fill="none" transform="matrix(-1.84043e-16 -1.00188 1 -1.83697e-16 0.315659 311)"/><path d="M152.343 183.82 152.343 183.82" stroke="#00DD00" stroke-width="0.598761" stroke-linecap="round" stroke-linejoin="round" fill="none" transform="matrix(-1.84043e-16 -1.00188 1 -1.83697e-16 0.315659 311)"/><path d="M154.788 183.82 154.788 183.82" stroke="#00DD00" stroke-width="0.598761" stroke-linecap="round" stroke-linejoin="round" fill="none" transform="matrix(-1.84043e-16 -1.00188 1 -1.83697e-16 0.315659 311)"/><path d="M157.233 183.82 157.233 183.82" stroke="#00DD00" stroke-width="0.598761" stroke-linecap="round" stroke-linejoin="round" fill="none" transform="matrix(-1.84043e-16 -1.00188 1 -1.83697e-16 0.315659 311)"/><path d="M159.678 183.82 159.678 183.82" stroke="#00DD00" stroke-width="0.598761" stroke-linecap="round" stroke-linejoin="round" fill="none" transform="matrix(-1.84043e-16 -1.00188 1 -1.83697e-16 0.315659 311)"/><path d="M162.123 183.82 162.123 183.82" stroke="#00DD00" stroke-width="0.598761" stroke-linecap="round" stroke-linejoin="round" fill="none" transform="matrix(-1.84043e-16 -1.00188 1 -1.83697e-16 0.315659 311)"/><path d="M164.568 183.82 164.568 183.82" stroke="#00DD00" stroke-width="0.598761" stroke-linecap="round" stroke-linejoin="round" fill="none" transform="matrix(-1.84043e-16 -1.00188 1 -1.83697e-16 0.315659 311)"/><path d="M167.013 183.82 167.013 183.82" stroke="#00DD00" stroke-width="0.598761" stroke-linecap="round" stroke-linejoin="round" fill="none" transform="matrix(-1.84043e-16 -1.00188 1 -1.83697e-16 0.315659 311)"/><path d="M32.4911 141.058 28.4495 141.058" stroke="#0000FF" stroke-width="0.598761" stroke-linecap="round" stroke-linejoin="round" fill="none" transform="matrix(-1.84043e-16 -1.00188 1 -1.83697e-16 0.315659 311)"/><path d="M109.981 185.865 77.3483 185.865" stroke="#00DD00" stroke-width="0.598761" stroke-linecap="round" stroke-linejoin="round" fill="none" transform="matrix(-1.84043e-16 -1.00188 1 -1.83697e-16 0.315659 311)"/><path d="M109.981 181.824 77.3483 181.824" stroke="#00DD00" stroke-width="0.598761" stroke-linecap="round" stroke-linejoin="round" fill="none" transform="matrix(-1.84043e-16 -1.00188 1 -1.83697e-16 0.315659 311)"/><path d="M20.2664 198.09 20.2664 51.3438" stroke="#000000" stroke-width="0.598761" stroke-linecap="round" stroke-linejoin="round" fill="none" transform="matrix(-1.84043e-16 -1.00188 1 -1.83697e-16 0.315659 311)"/><path d="M30.4453 51.3438 30.4453 51.3438" stroke="#0000FF" stroke-width="0.598761" stroke-linecap="round" stroke-linejoin="round" fill="none" transform="matrix(-1.84043e-16 -1.00188 1 -1.83697e-16 0.315659 311)"/><path d="M30.4453 53.7887 30.4453 53.7887" stroke="#0000FF" stroke-width="0.598761" stroke-linecap="round" stroke-linejoin="round" fill="none" transform="matrix(-1.84043e-16 -1.00188 1 -1.83697e-16 0.315659 311)"/><path d="M30.4453 56.2337 30.4453 56.2337" stroke="#0000FF" stroke-width="0.598761" stroke-linecap="round" stroke-linejoin="round" fill="none" transform="matrix(-1.84043e-16 -1.00188 1 -1.83697e-16 0.315659 311)"/><path d="M30.4453 58.6786 30.4453 58.6786" stroke="#0000FF" stroke-width="0.598761" stroke-linecap="round" stroke-linejoin="round" fill="none" transform="matrix(-1.84043e-16 -1.00188 1 -1.83697e-16 0.315659 311)"/><path d="M30.4453 61.1235 30.4453 61.1235" stroke="#0000FF" stroke-width="0.598761" stroke-linecap="round" stroke-linejoin="round" fill="none" transform="matrix(-1.84043e-16 -1.00188 1 -1.83697e-16 0.315659 311)"/><path d="M30.4453 63.5685 30.4453 63.5685" stroke="#0000FF" stroke-width="0.598761" stroke-linecap="round" stroke-linejoin="round" fill="none" transform="matrix(-1.84043e-16 -1.00188 1 -1.83697e-16 0.315659 311)"/><path d="M30.4453 66.0134 30.4453 66.0134" stroke="#0000FF" stroke-width="0.598761" stroke-linecap="round" stroke-linejoin="round" fill="none" transform="matrix(-1.84043e-16 -1.00188 1 -1.83697e-16 0.315659 311)"/><path d="M30.4453 68.4584 30.4453 68.4584" stroke="#0000FF" stroke-width="0.598761" stroke-linecap="round" stroke-linejoin="round" fill="none" transform="matrix(-1.84043e-16 -1.00188 1 -1.83697e-16 0.315659 311)"/><path d="M30.4453 70.9033 30.4453 70.9033" stroke="#0000FF" stroke-width="0.598761" stroke-linecap="round" stroke-linejoin="round" fill="none" transform="matrix(-1.84043e-16 -1.00188 1 -1.83697e-16 0.315659 311)"/><path d="M30.4453 73.3482 30.4453 73.3482" stroke="#0000FF" stroke-width="0.598761" stroke-linecap="round" stroke-linejoin="round" fill="none" transform="matrix(-1.84043e-16 -1.00188 1 -1.83697e-16 0.315659 311)"/><path d="M30.4453 75.7932 30.4453 75.7932" stroke="#0000FF" stroke-width="0.598761" stroke-linecap="round" stroke-linejoin="round" fill="none" transform="matrix(-1.84043e-16 -1.00188 1 -1.83697e-16 0.315659 311)"/><path d="M30.4453 78.2381 30.4453 78.2381" stroke="#0000FF" stroke-width="0.598761" stroke-linecap="round" stroke-linejoin="round" fill="none" transform="matrix(-1.84043e-16 -1.00188 1 -1.83697e-16 0.315659 311)"/><path d="M30.4453 80.6831 30.4453 80.6831" stroke="#0000FF" stroke-width="0.598761" stroke-linecap="round" stroke-linejoin="round" fill="none" transform="matrix(-1.84043e-16 -1.00188 1 -1.83697e-16 0.315659 311)"/><path d="M30.4453 83.128 30.4453 83.128" stroke="#0000FF" stroke-width="0.598761" stroke-linecap="round" stroke-linejoin="round" fill="none" transform="matrix(-1.84043e-16 -1.00188 1 -1.83697e-16 0.315659 311)"/><path d="M30.4453 85.573 30.4453 85.573" stroke="#0000FF" stroke-width="0.598761" stroke-linecap="round" stroke-linejoin="round" fill="none" transform="matrix(-1.84043e-16 -1.00188 1 -1.83697e-16 0.315659 311)"/><path d="M30.4453 88.0179 30.4453 88.0179" stroke="#0000FF" stroke-width="0.598761" stroke-linecap="round" stroke-linejoin="round" fill="none" transform="matrix(-1.84043e-16 -1.00188 1 -1.83697e-16 0.315659 311)"/><path d="M30.4453 90.4628 30.4453 90.4628" stroke="#0000FF" stroke-width="0.598761" stroke-linecap="round" stroke-linejoin="round" fill="none" transform="matrix(-1.84043e-16 -1.00188 1 -1.83697e-16 0.315659 311)"/><path d="M30.4453 92.9577 30.4453 92.9577" stroke="#0000FF" stroke-width="0.598761" stroke-linecap="round" stroke-linejoin="round" fill="none" transform="matrix(-1.84043e-16 -1.00188 1 -1.83697e-16 0.315659 311)"/><path d="M30.4453 95.4026 30.4453 95.4026" stroke="#0000FF" stroke-width="0.598761" stroke-linecap="round" stroke-linejoin="round" fill="none" transform="matrix(-1.84043e-16 -1.00188 1 -1.83697e-16 0.315659 311)"/><path d="M30.4453 97.8476 30.4453 97.8476" stroke="#0000FF" stroke-width="0.598761" stroke-linecap="round" stroke-linejoin="round" fill="none" transform="matrix(-1.84043e-16 -1.00188 1 -1.83697e-16 0.315659 311)"/><path d="M30.4453 100.292 30.4453 100.292" stroke="#0000FF" stroke-width="0.598761" stroke-linecap="round" stroke-linejoin="round" fill="none" transform="matrix(-1.84043e-16 -1.00188 1 -1.83697e-16 0.315659 311)"/><path d="M30.4453 102.737 30.4453 102.737" stroke="#0000FF" stroke-width="0.598761" stroke-linecap="round" stroke-linejoin="round" fill="none" transform="matrix(-1.84043e-16 -1.00188 1 -1.83697e-16 0.315659 311)"/><path d="M30.4453 105.182 30.4453 105.182" stroke="#0000FF" stroke-width="0.598761" stroke-linecap="round" stroke-linejoin="round" fill="none" transform="matrix(-1.84043e-16 -1.00188 1 -1.83697e-16 0.315659 311)"/><path d="M30.4453 107.627 30.4453 107.627" stroke="#0000FF" stroke-width="0.598761" stroke-linecap="round" stroke-linejoin="round" fill="none" transform="matrix(-1.84043e-16 -1.00188 1 -1.83697e-16 0.315659 311)"/><path d="M30.4453 110.072 30.4453 110.072" stroke="#0000FF" stroke-width="0.598761" stroke-linecap="round" stroke-linejoin="round" fill="none" transform="matrix(-1.84043e-16 -1.00188 1 -1.83697e-16 0.315659 311)"/><path d="M30.4453 112.517 30.4453 112.517" stroke="#0000FF" stroke-width="0.598761" stroke-linecap="round" stroke-linejoin="round" fill="none" transform="matrix(-1.84043e-16 -1.00188 1 -1.83697e-16 0.315659 311)"/><path d="M30.4453 114.962 30.4453 114.962" stroke="#0000FF" stroke-width="0.598761" stroke-linecap="round" stroke-linejoin="round" fill="none" transform="matrix(-1.84043e-16 -1.00188 1 -1.83697e-16 0.315659 311)"/><path d="M30.4453 117.407 30.4453 117.407" stroke="#0000FF" stroke-width="0.598761" stroke-linecap="round" stroke-linejoin="round" fill="none" transform="matrix(-1.84043e-16 -1.00188 1 -1.83697e-16 0.315659 311)"/><path d="M30.4453 119.852 30.4453 119.852" stroke="#0000FF" stroke-width="0.598761" stroke-linecap="round" stroke-linejoin="round" fill="none" transform="matrix(-1.84043e-16 -1.00188 1 -1.83697e-16 0.315659 311)"/><path d="M30.4453 122.297 30.4453 122.297" stroke="#0000FF" stroke-width="0.598761" stroke-linecap="round" stroke-linejoin="round" fill="none" transform="matrix(-1.84043e-16 -1.00188 1 -1.83697e-16 0.315659 311)"/><path d="M30.4453 124.742 30.4453 124.742" stroke="#0000FF" stroke-width="0.598761" stroke-linecap="round" stroke-linejoin="round" fill="none" transform="matrix(-1.84043e-16 -1.00188 1 -1.83697e-16 0.315659 311)"/><path d="M30.4453 127.187 30.4453 127.187" stroke="#0000FF" stroke-width="0.598761" stroke-linecap="round" stroke-linejoin="round" fill="none" transform="matrix(-1.84043e-16 -1.00188 1 -1.83697e-16 0.315659 311)"/><path d="M30.4453 129.632 30.4453 129.632" stroke="#0000FF" stroke-width="0.598761" stroke-linecap="round" stroke-linejoin="round" fill="none" transform="matrix(-1.84043e-16 -1.00188 1 -1.83697e-16 0.315659 311)"/><path d="M30.4453 132.077 30.4453 132.077" stroke="#0000FF" stroke-width="0.598761" stroke-linecap="round" stroke-linejoin="round" fill="none" transform="matrix(-1.84043e-16 -1.00188 1 -1.83697e-16 0.315659 311)"/><path d="M30.4453 134.522 30.4453 134.522" stroke="#0000FF" stroke-width="0.598761" stroke-linecap="round" stroke-linejoin="round" fill="none" transform="matrix(-1.84043e-16 -1.00188 1 -1.83697e-16 0.315659 311)"/><path d="M30.4453 136.967 30.4453 136.967" stroke="#0000FF" stroke-width="0.598761" stroke-linecap="round" stroke-linejoin="round" fill="none" transform="matrix(-1.84043e-16 -1.00188 1 -1.83697e-16 0.315659 311)"/><path d="M30.4453 139.412 30.4453 139.412" stroke="#0000FF" stroke-width="0.598761" stroke-linecap="round" stroke-linejoin="round" fill="none" transform="matrix(-1.84043e-16 -1.00188 1 -1.83697e-16 0.315659 311)"/><path d="M30.4453 141.857 30.4453 141.857" stroke="#0000FF" stroke-width="0.598761" stroke-linecap="round" stroke-linejoin="round" fill="none" transform="matrix(-1.84043e-16 -1.00188 1 -1.83697e-16 0.315659 311)"/><path d="M30.4453 144.301 30.4453 144.301" stroke="#0000FF" stroke-width="0.598761" stroke-linecap="round" stroke-linejoin="round" fill="none" transform="matrix(-1.84043e-16 -1.00188 1 -1.83697e-16 0.315659 311)"/><path d="M30.4453 146.746 30.4453 146.746" stroke="#0000FF" stroke-width="0.598761" stroke-linecap="round" stroke-linejoin="round" fill="none" transform="matrix(-1.84043e-16 -1.00188 1 -1.83697e-16 0.315659 311)"/><path d="M30.4453 149.191 30.4453 149.191" stroke="#0000FF" stroke-width="0.598761" stroke-linecap="round" stroke-linejoin="round" fill="none" transform="matrix(-1.84043e-16 -1.00188 1 -1.83697e-16 0.315659 311)"/><path d="M30.4453 151.636 30.4453 151.636" stroke="#0000FF" stroke-width="0.598761" stroke-linecap="round" stroke-linejoin="round" fill="none" transform="matrix(-1.84043e-16 -1.00188 1 -1.83697e-16 0.315659 311)"/><path d="M30.4453 154.081 30.4453 154.081" stroke="#0000FF" stroke-width="0.598761" stroke-linecap="round" stroke-linejoin="round" fill="none" transform="matrix(-1.84043e-16 -1.00188 1 -1.83697e-16 0.315659 311)"/><path d="M30.4453 156.526 30.4453 156.526" stroke="#0000FF" stroke-width="0.598761" stroke-linecap="round" stroke-linejoin="round" fill="none" transform="matrix(-1.84043e-16 -1.00188 1 -1.83697e-16 0.315659 311)"/><path d="M30.4453 158.971 30.4453 158.971" stroke="#0000FF" stroke-width="0.598761" stroke-linecap="round" stroke-linejoin="round" fill="none" transform="matrix(-1.84043e-16 -1.00188 1 -1.83697e-16 0.315659 311)"/><path d="M30.4453 161.416 30.4453 161.416" stroke="#0000FF" stroke-width="0.598761" stroke-linecap="round" stroke-linejoin="round" fill="none" transform="matrix(-1.84043e-16 -1.00188 1 -1.83697e-16 0.315659 311)"/><path d="M30.4453 163.861 30.4453 163.861" stroke="#0000FF" stroke-width="0.598761" stroke-linecap="round" stroke-linejoin="round" fill="none" transform="matrix(-1.84043e-16 -1.00188 1 -1.83697e-16 0.315659 311)"/><path d="M30.4453 166.306 30.4453 166.306" stroke="#0000FF" stroke-width="0.598761" stroke-linecap="round" stroke-linejoin="round" fill="none" transform="matrix(-1.84043e-16 -1.00188 1 -1.83697e-16 0.315659 311)"/><path d="M30.4453 168.751 30.4453 168.751" stroke="#0000FF" stroke-width="0.598761" stroke-linecap="round" stroke-linejoin="round" fill="none" transform="matrix(-1.84043e-16 -1.00188 1 -1.83697e-16 0.315659 311)"/><path d="M30.4453 171.196 30.4453 171.196" stroke="#0000FF" stroke-width="0.598761" stroke-linecap="round" stroke-linejoin="round" fill="none" transform="matrix(-1.84043e-16 -1.00188 1 -1.83697e-16 0.315659 311)"/><path d="M30.4453 173.641 30.4453 173.641" stroke="#0000FF" stroke-width="0.598761" stroke-linecap="round" stroke-linejoin="round" fill="none" transform="matrix(-1.84043e-16 -1.00188 1 -1.83697e-16 0.315659 311)"/><path d="M30.4453 176.086 30.4453 176.086" stroke="#0000FF" stroke-width="0.598761" stroke-linecap="round" stroke-linejoin="round" fill="none" transform="matrix(-1.84043e-16 -1.00188 1 -1.83697e-16 0.315659 311)"/><path d="M30.4453 178.531 30.4453 178.531" stroke="#0000FF" stroke-width="0.598761" stroke-linecap="round" stroke-linejoin="round" fill="none" transform="matrix(-1.84043e-16 -1.00188 1 -1.83697e-16 0.315659 311)"/><path d="M30.4453 180.976 30.4453 180.976" stroke="#0000FF" stroke-width="0.598761" stroke-linecap="round" stroke-linejoin="round" fill="none" transform="matrix(-1.84043e-16 -1.00188 1 -1.83697e-16 0.315659 311)"/><path d="M30.4453 183.421 30.4453 183.421" stroke="#0000FF" stroke-width="0.598761" stroke-linecap="round" stroke-linejoin="round" fill="none" transform="matrix(-1.84043e-16 -1.00188 1 -1.83697e-16 0.315659 311)"/><path d="M30.4453 185.865 30.4453 185.865" stroke="#0000FF" stroke-width="0.598761" stroke-linecap="round" stroke-linejoin="round" fill="none" transform="matrix(-1.84043e-16 -1.00188 1 -1.83697e-16 0.315659 311)"/><path d="M30.4453 188.31 30.4453 188.31" stroke="#0000FF" stroke-width="0.598761" stroke-linecap="round" stroke-linejoin="round" fill="none" transform="matrix(-1.84043e-16 -1.00188 1 -1.83697e-16 0.315659 311)"/><path d="M30.4453 190.755 30.4453 190.755" stroke="#0000FF" stroke-width="0.598761" stroke-linecap="round" stroke-linejoin="round" fill="none" transform="matrix(-1.84043e-16 -1.00188 1 -1.83697e-16 0.315659 311)"/><path d="M30.4453 193.2 30.4453 193.2" stroke="#0000FF" stroke-width="0.598761" stroke-linecap="round" stroke-linejoin="round" fill="none" transform="matrix(-1.84043e-16 -1.00188 1 -1.83697e-16 0.315659 311)"/><path d="M30.4453 195.645 30.4453 195.645" stroke="#0000FF" stroke-width="0.598761" stroke-linecap="round" stroke-linejoin="round" fill="none" transform="matrix(-1.84043e-16 -1.00188 1 -1.83697e-16 0.315659 311)"/><path d="M30.4453 198.09 30.4453 198.09" stroke="#0000FF" stroke-width="0.598761" stroke-linecap="round" stroke-linejoin="round" fill="none" transform="matrix(-1.84043e-16 -1.00188 1 -1.83697e-16 0.315659 311)"/><path d="M28.4495 141.058 28.4495 108.426" stroke="#0000FF" stroke-width="0.598761" stroke-linecap="round" stroke-linejoin="round" fill="none" transform="matrix(-1.84043e-16 -1.00188 1 -1.83697e-16 0.315659 311)"/><path d="M32.4911 141.058 32.4911 108.426" stroke="#0000FF" stroke-width="0.598761" stroke-linecap="round" stroke-linejoin="round" fill="none" transform="matrix(-1.84043e-16 -1.00188 1 -1.83697e-16 0.315659 311)"/><path d="M77.3483 185.865 77.3483 181.824" stroke="#00DD00" stroke-width="0.598761" stroke-linecap="round" stroke-linejoin="round" fill="none" transform="matrix(-1.84043e-16 -1.00188 1 -1.83697e-16 0.315659 311)"/><path d="M77.3483 67.66 77.3483 63.5685" stroke="#FF0000" stroke-width="0.598761" stroke-linecap="round" stroke-linejoin="round" fill="none" transform="matrix(-1.84043e-16 -1.00188 1 -1.83697e-16 0.315659 311)"/><path d="M20.2664 51.3438 167.013 51.3438" stroke="#000000" stroke-width="0.598761" stroke-linecap="round" stroke-linejoin="round" fill="none" transform="matrix(-1.84043e-16 -1.00188 1 -1.83697e-16 0.315659 311)"/><path d="M167.013 65.6143 167.013 65.6143" stroke="#FF0000" stroke-width="0.598761" stroke-linecap="round" stroke-linejoin="round" fill="none" transform="matrix(-1.84043e-16 -1.00188 1 -1.83697e-16 0.315659 311)"/><path d="M164.568 65.6143 164.568 65.6143" stroke="#FF0000" stroke-width="0.598761" stroke-linecap="round" stroke-linejoin="round" fill="none" transform="matrix(-1.84043e-16 -1.00188 1 -1.83697e-16 0.315659 311)"/><path d="M162.123 65.6143 162.123 65.6143" stroke="#FF0000" stroke-width="0.598761" stroke-linecap="round" stroke-linejoin="round" fill="none" transform="matrix(-1.84043e-16 -1.00188 1 -1.83697e-16 0.315659 311)"/><path d="M159.678 65.6143 159.678 65.6143" stroke="#FF0000" stroke-width="0.598761" stroke-linecap="round" stroke-linejoin="round" fill="none" transform="matrix(-1.84043e-16 -1.00188 1 -1.83697e-16 0.315659 311)"/><path d="M157.233 65.6143 157.233 65.6143" stroke="#FF0000" stroke-width="0.598761" stroke-linecap="round" stroke-linejoin="round" fill="none" transform="matrix(-1.84043e-16 -1.00188 1 -1.83697e-16 0.315659 311)"/><path d="M154.788 65.6143 154.788 65.6143" stroke="#FF0000" stroke-width="0.598761" stroke-linecap="round" stroke-linejoin="round" fill="none" transform="matrix(-1.84043e-16 -1.00188 1 -1.83697e-16 0.315659 311)"/><path d="M152.343 65.6143 152.343 65.6143" stroke="#FF0000" stroke-width="0.598761" stroke-linecap="round" stroke-linejoin="round" fill="none" transform="matrix(-1.84043e-16 -1.00188 1 -1.83697e-16 0.315659 311)"/><path d="M149.898 65.6143 149.898 65.6143" stroke="#FF0000" stroke-width="0.598761" stroke-linecap="round" stroke-linejoin="round" fill="none" transform="matrix(-1.84043e-16 -1.00188 1 -1.83697e-16 0.315659 311)"/><path d="M147.453 65.6143 147.453 65.6143" stroke="#FF0000" stroke-width="0.598761" stroke-linecap="round" stroke-linejoin="round" fill="none" transform="matrix(-1.84043e-16 -1.00188 1 -1.83697e-16 0.315659 311)"/><path d="M145.008 65.6143 145.008 65.6143" stroke="#FF0000" stroke-width="0.598761" stroke-linecap="round" stroke-linejoin="round" fill="none" transform="matrix(-1.84043e-16 -1.00188 1 -1.83697e-16 0.315659 311)"/><path d="M142.563 65.6143 142.563 65.6143" stroke="#FF0000" stroke-width="0.598761" stroke-linecap="round" stroke-linejoin="round" fill="none" transform="matrix(-1.84043e-16 -1.00188 1 -1.83697e-16 0.315659 311)"/><path d="M140.118 65.6143 140.118 65.6143" stroke="#FF0000" stroke-width="0.598761" stroke-linecap="round" stroke-linejoin="round" fill="none" transform="matrix(-1.84043e-16 -1.00188 1 -1.83697e-16 0.315659 311)"/><path d="M137.673 65.6143 137.673 65.6143" stroke="#FF0000" stroke-width="0.598761" stroke-linecap="round" stroke-linejoin="round" fill="none" transform="matrix(-1.84043e-16 -1.00188 1 -1.83697e-16 0.315659 311)"/><path d="M135.229 65.6143 135.229 65.6143" stroke="#FF0000" stroke-width="0.598761" stroke-linecap="round" stroke-linejoin="round" fill="none" transform="matrix(-1.84043e-16 -1.00188 1 -1.83697e-16 0.315659 311)"/><path d="M132.784 65.6143 132.784 65.6143" stroke="#FF0000" stroke-width="0.598761" stroke-linecap="round" stroke-linejoin="round" fill="none" transform="matrix(-1.84043e-16 -1.00188 1 -1.83697e-16 0.315659 311)"/><path d="M130.339 65.6143 130.339 65.6143" stroke="#FF0000" stroke-width="0.598761" stroke-linecap="round" stroke-linejoin="round" fill="none" transform="matrix(-1.84043e-16 -1.00188 1 -1.83697e-16 0.315659 311)"/><path d="M127.894 65.6143 127.894 65.6143" stroke="#FF0000" stroke-width="0.598761" stroke-linecap="round" stroke-linejoin="round" fill="none" transform="matrix(-1.84043e-16 -1.00188 1 -1.83697e-16 0.315659 311)"/><path d="M125.449 65.6143 125.449 65.6143" stroke="#FF0000" stroke-width="0.598761" stroke-linecap="round" stroke-linejoin="round" fill="none" transform="matrix(-1.84043e-16 -1.00188 1 -1.83697e-16 0.315659 311)"/><path d="M123.004 65.6143 123.004 65.6143" stroke="#FF0000" stroke-width="0.598761" stroke-linecap="round" stroke-linejoin="round" fill="none" transform="matrix(-1.84043e-16 -1.00188 1 -1.83697e-16 0.315659 311)"/><path d="M120.559 65.6143 120.559 65.6143" stroke="#FF0000" stroke-width="0.598761" stroke-linecap="round" stroke-linejoin="round" fill="none" transform="matrix(-1.84043e-16 -1.00188 1 -1.83697e-16 0.315659 311)"/><path d="M118.114 65.6143 118.114 65.6143" stroke="#FF0000" stroke-width="0.598761" stroke-linecap="round" stroke-linejoin="round" fill="none" transform="matrix(-1.84043e-16 -1.00188 1 -1.83697e-16 0.315659 311)"/><path d="M115.669 65.6143 115.669 65.6143" stroke="#FF0000" stroke-width="0.598761" stroke-linecap="round" stroke-linejoin="round" fill="none" transform="matrix(-1.84043e-16 -1.00188 1 -1.83697e-16 0.315659 311)"/><path d="M113.224 65.6143 113.224 65.6143" stroke="#FF0000" stroke-width="0.598761" stroke-linecap="round" stroke-linejoin="round" fill="none" transform="matrix(-1.84043e-16 -1.00188 1 -1.83697e-16 0.315659 311)"/><path d="M110.779 65.6143 110.779 65.6143" stroke="#FF0000" stroke-width="0.598761" stroke-linecap="round" stroke-linejoin="round" fill="none" transform="matrix(-1.84043e-16 -1.00188 1 -1.83697e-16 0.315659 311)"/><path d="M108.334 65.6143 108.334 65.6143" stroke="#FF0000" stroke-width="0.598761" stroke-linecap="round" stroke-linejoin="round" fill="none" transform="matrix(-1.84043e-16 -1.00188 1 -1.83697e-16 0.315659 311)"/><path d="M105.889 65.6143 105.889 65.6143" stroke="#FF0000" stroke-width="0.598761" stroke-linecap="round" stroke-linejoin="round" fill="none" transform="matrix(-1.84043e-16 -1.00188 1 -1.83697e-16 0.315659 311)"/><path d="M103.444 65.6143 103.444 65.6143" stroke="#FF0000" stroke-width="0.598761" stroke-linecap="round" stroke-linejoin="round" fill="none" transform="matrix(-1.84043e-16 -1.00188 1 -1.83697e-16 0.315659 311)"/><path d="M100.999 65.6143 100.999 65.6143" stroke="#FF0000" stroke-width="0.598761" stroke-linecap="round" stroke-linejoin="round" fill="none" transform="matrix(-1.84043e-16 -1.00188 1 -1.83697e-16 0.315659 311)"/><path d="M98.5544 65.6143 98.5544 65.6143" stroke="#FF0000" stroke-width="0.598761" stroke-linecap="round" stroke-linejoin="round" fill="none" transform="matrix(-1.84043e-16 -1.00188 1 -1.83697e-16 0.315659 311)"/><path d="M96.1095 65.6143 96.1095 65.6143" stroke="#FF0000" stroke-width="0.598761" stroke-linecap="round" stroke-linejoin="round" fill="none" transform="matrix(-1.84043e-16 -1.00188 1 -1.83697e-16 0.315659 311)"/><path d="M93.6645 65.6143 93.6645 65.6143" stroke="#FF0000" stroke-width="0.598761" stroke-linecap="round" stroke-linejoin="round" fill="none" transform="matrix(-1.84043e-16 -1.00188 1 -1.83697e-16 0.315659 311)"/><path d="M91.2196 65.6143 91.2196 65.6143" stroke="#FF0000" stroke-width="0.598761" stroke-linecap="round" stroke-linejoin="round" fill="none" transform="matrix(-1.84043e-16 -1.00188 1 -1.83697e-16 0.315659 311)"/><path d="M88.7747 65.6143 88.7747 65.6143" stroke="#FF0000" stroke-width="0.598761" stroke-linecap="round" stroke-linejoin="round" fill="none" transform="matrix(-1.84043e-16 -1.00188 1 -1.83697e-16 0.315659 311)"/><path d="M86.3297 65.6143 86.3297 65.6143" stroke="#FF0000" stroke-width="0.598761" stroke-linecap="round" stroke-linejoin="round" fill="none" transform="matrix(-1.84043e-16 -1.00188 1 -1.83697e-16 0.315659 311)"/><path d="M83.8848 65.6143 83.8848 65.6143" stroke="#FF0000" stroke-width="0.598761" stroke-linecap="round" stroke-linejoin="round" fill="none" transform="matrix(-1.84043e-16 -1.00188 1 -1.83697e-16 0.315659 311)"/><path d="M81.4398 65.6143 81.4398 65.6143" stroke="#FF0000" stroke-width="0.598761" stroke-linecap="round" stroke-linejoin="round" fill="none" transform="matrix(-1.84043e-16 -1.00188 1 -1.83697e-16 0.315659 311)"/><path d="M78.9949 65.6143 78.9949 65.6143" stroke="#FF0000" stroke-width="0.598761" stroke-linecap="round" stroke-linejoin="round" fill="none" transform="matrix(-1.84043e-16 -1.00188 1 -1.83697e-16 0.315659 311)"/><path d="M76.55 65.6143 76.55 65.6143" stroke="#FF0000" stroke-width="0.598761" stroke-linecap="round" stroke-linejoin="round" fill="none" transform="matrix(-1.84043e-16 -1.00188 1 -1.83697e-16 0.315659 311)"/><path d="M74.105 65.6143 74.105 65.6143" stroke="#FF0000" stroke-width="0.598761" stroke-linecap="round" stroke-linejoin="round" fill="none" transform="matrix(-1.84043e-16 -1.00188 1 -1.83697e-16 0.315659 311)"/><path d="M71.6601 65.6143 71.6601 65.6143" stroke="#FF0000" stroke-width="0.598761" stroke-linecap="round" stroke-linejoin="round" fill="none" transform="matrix(-1.84043e-16 -1.00188 1 -1.83697e-16 0.315659 311)"/><path d="M69.2151 65.6143 69.2151 65.6143" stroke="#FF0000" stroke-width="0.598761" stroke-linecap="round" stroke-linejoin="round" fill="none" transform="matrix(-1.84043e-16 -1.00188 1 -1.83697e-16 0.315659 311)"/><path d="M66.7702 65.6143 66.7702 65.6143" stroke="#FF0000" stroke-width="0.598761" stroke-linecap="round" stroke-linejoin="round" fill="none" transform="matrix(-1.84043e-16 -1.00188 1 -1.83697e-16 0.315659 311)"/><path d="M64.3252 65.6143 64.3252 65.6143" stroke="#FF0000" stroke-width="0.598761" stroke-linecap="round" stroke-linejoin="round" fill="none" transform="matrix(-1.84043e-16 -1.00188 1 -1.83697e-16 0.315659 311)"/><path d="M61.8803 65.6143 61.8803 65.6143" stroke="#FF0000" stroke-width="0.598761" stroke-linecap="round" stroke-linejoin="round" fill="none" transform="matrix(-1.84043e-16 -1.00188 1 -1.83697e-16 0.315659 311)"/><path d="M59.3855 65.6143 59.3855 65.6143" stroke="#FF0000" stroke-width="0.598761" stroke-linecap="round" stroke-linejoin="round" fill="none" transform="matrix(-1.84043e-16 -1.00188 1 -1.83697e-16 0.315659 311)"/><path d="M56.9405 65.6143 56.9405 65.6143" stroke="#FF0000" stroke-width="0.598761" stroke-linecap="round" stroke-linejoin="round" fill="none" transform="matrix(-1.84043e-16 -1.00188 1 -1.83697e-16 0.315659 311)"/><path d="M54.4956 65.6143 54.4956 65.6143" stroke="#FF0000" stroke-width="0.598761" stroke-linecap="round" stroke-linejoin="round" fill="none" transform="matrix(-1.84043e-16 -1.00188 1 -1.83697e-16 0.315659 311)"/><path d="M52.0506 65.6143 52.0506 65.6143" stroke="#FF0000" stroke-width="0.598761" stroke-linecap="round" stroke-linejoin="round" fill="none" transform="matrix(-1.84043e-16 -1.00188 1 -1.83697e-16 0.315659 311)"/><path d="M49.6057 65.6143 49.6057 65.6143" stroke="#FF0000" stroke-width="0.598761" stroke-linecap="round" stroke-linejoin="round" fill="none" transform="matrix(-1.84043e-16 -1.00188 1 -1.83697e-16 0.315659 311)"/><path d="M47.1608 65.6143 47.1608 65.6143" stroke="#FF0000" stroke-width="0.598761" stroke-linecap="round" stroke-linejoin="round" fill="none" transform="matrix(-1.84043e-16 -1.00188 1 -1.83697e-16 0.315659 311)"/><path d="M44.7158 65.6143 44.7158 65.6143" stroke="#FF0000" stroke-width="0.598761" stroke-linecap="round" stroke-linejoin="round" fill="none" transform="matrix(-1.84043e-16 -1.00188 1 -1.83697e-16 0.315659 311)"/><path d="M42.2709 65.6143 42.2709 65.6143" stroke="#FF0000" stroke-width="0.598761" stroke-linecap="round" stroke-linejoin="round" fill="none" transform="matrix(-1.84043e-16 -1.00188 1 -1.83697e-16 0.315659 311)"/><path d="M39.8259 65.6143 39.8259 65.6143" stroke="#FF0000" stroke-width="0.598761" stroke-linecap="round" stroke-linejoin="round" fill="none" transform="matrix(-1.84043e-16 -1.00188 1 -1.83697e-16 0.315659 311)"/><path d="M37.381 65.6143 37.381 65.6143" stroke="#FF0000" stroke-width="0.598761" stroke-linecap="round" stroke-linejoin="round" fill="none" transform="matrix(-1.84043e-16 -1.00188 1 -1.83697e-16 0.315659 311)"/><path d="M34.9361 65.6143 34.9361 65.6143" stroke="#FF0000" stroke-width="0.598761" stroke-linecap="round" stroke-linejoin="round" fill="none" transform="matrix(-1.84043e-16 -1.00188 1 -1.83697e-16 0.315659 311)"/><path d="M32.4911 65.6143 32.4911 65.6143" stroke="#FF0000" stroke-width="0.598761" stroke-linecap="round" stroke-linejoin="round" fill="none" transform="matrix(-1.84043e-16 -1.00188 1 -1.83697e-16 0.315659 311)"/><path d="M30.0462 65.6143 30.0462 65.6143" stroke="#FF0000" stroke-width="0.598761" stroke-linecap="round" stroke-linejoin="round" fill="none" transform="matrix(-1.84043e-16 -1.00188 1 -1.83697e-16 0.315659 311)"/><path d="M27.6012 65.6143 27.6012 65.6143" stroke="#FF0000" stroke-width="0.598761" stroke-linecap="round" stroke-linejoin="round" fill="none" transform="matrix(-1.84043e-16 -1.00188 1 -1.83697e-16 0.315659 311)"/><path d="M25.1563 65.6143 25.1563 65.6143" stroke="#FF0000" stroke-width="0.598761" stroke-linecap="round" stroke-linejoin="round" fill="none" transform="matrix(-1.84043e-16 -1.00188 1 -1.83697e-16 0.315659 311)"/><path d="M22.7113 65.6143 22.7113 65.6143" stroke="#FF0000" stroke-width="0.598761" stroke-linecap="round" stroke-linejoin="round" fill="none" transform="matrix(-1.84043e-16 -1.00188 1 -1.83697e-16 0.315659 311)"/><path d="M20.2664 65.6143 20.2664 65.6143" stroke="#FF0000" stroke-width="0.598761" stroke-linecap="round" stroke-linejoin="round" fill="none" transform="matrix(-1.84043e-16 -1.00188 1 -1.83697e-16 0.315659 311)"/><path d="M28.4495 108.426 32.4911 108.426" stroke="#0000FF" stroke-width="0.598761" stroke-linecap="round" stroke-linejoin="round" fill="none" transform="matrix(-1.84043e-16 -1.00188 1 -1.83697e-16 0.315659 311)"/><path d="M77.3483 63.5685 109.981 63.5685" stroke="#FF0000" stroke-width="0.598761" stroke-linecap="round" stroke-linejoin="round" fill="none" transform="matrix(-1.84043e-16 -1.00188 1 -1.83697e-16 0.315659 311)"/><path d="M77.3483 67.66 109.981 67.66" stroke="#FF0000" stroke-width="0.598761" stroke-linecap="round" stroke-linejoin="round" fill="none" transform="matrix(-1.84043e-16 -1.00188 1 -1.83697e-16 0.315659 311)"/><path d="M216.427 133.773C218.673 133.773 220.494 131.953 220.494 129.707 220.494 127.46 218.673 125.64 216.427 125.64 214.181 125.64 212.361 127.46 212.361 129.707 212.361 131.953 214.181 133.773 216.427 133.773" stroke="#000000" stroke-width="0.598761" stroke-linecap="round" stroke-linejoin="round" fill="none" transform="matrix(-1.84043e-16 -1.00188 1 -1.83697e-16 -4.67402 433.969)"/><path d="M89.573 124.742 93.6645 124.742 97.7062 124.742" stroke="#000000" stroke-width="0.598761" stroke-linecap="round" stroke-linejoin="round" fill="none" transform="matrix(-1.84043e-16 -1.00188 1 -1.83697e-16 0.315659 311)"/><path d="M93.6645 120.65 93.6645 124.742 93.6645 128.784" stroke="#000000" stroke-width="0.598761" stroke-linecap="round" stroke-linejoin="round" fill="none" transform="matrix(-1.84043e-16 -1.00188 1 -1.83697e-16 0.315659 311)"/><path d="M93.1656 124.742 87.3277 124.742" stroke="#000000" stroke-width="0.598761" stroke-linecap="round" stroke-linejoin="round" fill="none" transform="matrix(-1.84043e-16 -1.00188 1 -1.83697e-16 0.315659 311)"/><path d="M84.8827 124.742 75.1029 124.742" stroke="#000000" stroke-width="0.598761" stroke-linecap="round" stroke-linejoin="round" fill="none" transform="matrix(-1.84043e-16 -1.00188 1 -1.83697e-16 0.315659 311)"/><path d="M72.658 124.742 62.8782 124.742" stroke="#000000" stroke-width="0.598761" stroke-linecap="round" stroke-linejoin="round" fill="none" transform="matrix(-1.84043e-16 -1.00188 1 -1.83697e-16 0.315659 311)"/><path d="M60.4333 124.742 50.6535 124.742" stroke="#000000" stroke-width="0.598761" stroke-linecap="round" stroke-linejoin="round" fill="none" transform="matrix(-1.84043e-16 -1.00188 1 -1.83697e-16 0.315659 311)"/><path d="M48.2086 124.742 42.3707 124.742" stroke="#000000" stroke-width="0.598761" stroke-linecap="round" stroke-linejoin="round" fill="none" transform="matrix(-1.84043e-16 -1.00188 1 -1.83697e-16 0.315659 311)"/><path d="M93.1656 613.88 87.3277 613.88" stroke="#000000" stroke-width="0.598761" stroke-linecap="round" stroke-linejoin="round" fill="none" transform="matrix(-1.84043e-16 -1.00188 1 -1.83697e-16 0.315659 311)"/><path d="M84.8827 613.88 75.1029 613.88" stroke="#000000" stroke-width="0.598761" stroke-linecap="round" stroke-linejoin="round" fill="none" transform="matrix(-1.84043e-16 -1.00188 1 -1.83697e-16 0.315659 311)"/><path d="M72.658 613.88 62.8782 613.88" stroke="#000000" stroke-width="0.598761" stroke-linecap="round" stroke-linejoin="round" fill="none" transform="matrix(-1.84043e-16 -1.00188 1 -1.83697e-16 0.315659 311)"/><path d="M60.4333 613.88 50.6535 613.88" stroke="#000000" stroke-width="0.598761" stroke-linecap="round" stroke-linejoin="round" fill="none" transform="matrix(-1.84043e-16 -1.00188 1 -1.83697e-16 0.315659 311)"/><path d="M48.2086 613.88 42.3707 613.88" stroke="#000000" stroke-width="0.598761" stroke-linecap="round" stroke-linejoin="round" fill="none" transform="matrix(-1.84043e-16 -1.00188 1 -1.83697e-16 0.315659 311)"/><path d="M43.8177 126.189 43.8177 351.672" stroke="#000000" stroke-width="0.598761" stroke-linecap="round" stroke-linejoin="round" fill="none" transform="matrix(-1.84043e-16 -1.00188 1 -1.83697e-16 0.315659 311)"/><path d="M43.8177 612.433 43.8177 386.999" stroke="#000000" stroke-width="0.598761" stroke-linecap="round" stroke-linejoin="round" fill="none" transform="matrix(-1.84043e-16 -1.00188 1 -1.83697e-16 0.315659 311)"/><path d="M44.0672 126.189 43.6181 126.189 43.8177 124.742 44.0672 126.189Z" transform="matrix(-1.84043e-16 -1.00188 1 -1.83697e-16 0.315659 311)"/><path d="M44.0672 612.433 43.6181 612.433 43.8177 613.88 44.0672 612.433Z" transform="matrix(-1.84043e-16 -1.00188 1 -1.83697e-16 0.315659 311)"/></g><g clip-path="url(#clip2)"><text font-family="Arial,Arial_MSFontService,sans-serif" font-weight="400" font-size="14" transform="matrix(0.831613 -2.03782e-16 2.03974e-16 0.833177 352.287 271)">60<tspan font-size="14" x="16" y="3.91335e-15">.</tspan><tspan font-size="14" x="20" y="4.89169e-15">000</tspan></text></g><g clip-path="url(#clip3)"><path d="M220.752 141.507 229.034 143.753" stroke="#000000" stroke-width="0.598761" stroke-linecap="round" stroke-linejoin="round" fill="none" transform="matrix(-1.84043e-16 -1.00188 1 -1.83697e-16 0.315659 311)"/><path d="M231.38 144.351 239.613 146.597" stroke="#000000" stroke-width="0.598761" stroke-linecap="round" stroke-linejoin="round" fill="none" transform="matrix(-1.84043e-16 -1.00188 1 -1.83697e-16 0.315659 311)"/><path d="M94.1635 614.03 102.396 616.225" stroke="#000000" stroke-width="0.598761" stroke-linecap="round" stroke-linejoin="round" fill="none" transform="matrix(-1.84043e-16 -1.00188 1 -1.83697e-16 0.315659 311)"/><path d="M104.742 616.874 113.024 619.069" stroke="#000000" stroke-width="0.598761" stroke-linecap="round" stroke-linejoin="round" fill="none" transform="matrix(-1.84043e-16 -1.00188 1 -1.83697e-16 0.315659 311)"/><path d="M237.816 147.645 179.637 364.795" stroke="#000000" stroke-width="0.598761" stroke-linecap="round" stroke-linejoin="round" fill="none" transform="matrix(-1.84043e-16 -1.00188 1 -1.83697e-16 0.315659 311)"/><path d="M111.977 617.273 170.156 400.122" stroke="#000000" stroke-width="0.598761" stroke-linecap="round" stroke-linejoin="round" fill="none" transform="matrix(-1.84043e-16 -1.00188 1 -1.83697e-16 0.315659 311)"/><path d="M238.066 147.694 237.617 147.545 238.215 146.198 238.066 147.694Z" transform="matrix(-1.84043e-16 -1.00188 1 -1.83697e-16 0.315659 311)"/><path d="M112.226 617.373 111.727 617.223 111.577 618.72 112.226 617.373Z" transform="matrix(-1.84043e-16 -1.00188 1 -1.83697e-16 0.315659 311)"/><text font-family="Arial,Arial_MSFontService,sans-serif" font-weight="400" font-size="14" transform="matrix(0.831613 -2.03782e-16 2.03974e-16 0.833177 365.41 140)">60<tspan font-size="14" x="16" y="3.91335e-15">.</tspan><tspan font-size="14" x="20" y="4.89169e-15">000</tspan></text><path d="M93.6645 124.742 93.6645 129.632" stroke="#000000" stroke-width="0.598761" stroke-linecap="round" stroke-linejoin="round" fill="none" transform="matrix(-1.84043e-16 -1.00188 1 -1.83697e-16 0.315659 311)"/><path d="M93.6645 132.077 93.6645 141.857" stroke="#000000" stroke-width="0.598761" stroke-linecap="round" stroke-linejoin="round" fill="none" transform="matrix(-1.84043e-16 -1.00188 1 -1.83697e-16 0.315659 311)"/><path d="M93.6645 144.301 93.6645 154.081" stroke="#000000" stroke-width="0.598761" stroke-linecap="round" stroke-linejoin="round" fill="none" transform="matrix(-1.84043e-16 -1.00188 1 -1.83697e-16 0.315659 311)"/><path d="M93.6645 156.526 93.6645 166.306" stroke="#000000" stroke-width="0.598761" stroke-linecap="round" stroke-linejoin="round" fill="none" transform="matrix(-1.84043e-16 -1.00188 1 -1.83697e-16 0.315659 311)"/><path d="M93.6645 168.751 93.6645 178.531" stroke="#000000" stroke-width="0.598761" stroke-linecap="round" stroke-linejoin="round" fill="none" transform="matrix(-1.84043e-16 -1.00188 1 -1.83697e-16 0.315659 311)"/><path d="M93.6645 180.976 93.6645 190.755" stroke="#000000" stroke-width="0.598761" stroke-linecap="round" stroke-linejoin="round" fill="none" transform="matrix(-1.84043e-16 -1.00188 1 -1.83697e-16 0.315659 311)"/><path d="M93.6645 193.2 93.6645 202.98" stroke="#000000" stroke-width="0.598761" stroke-linecap="round" stroke-linejoin="round" fill="none" transform="matrix(-1.84043e-16 -1.00188 1 -1.83697e-16 0.315659 311)"/><path d="M93.6645 205.425 93.6645 215.205" stroke="#000000" stroke-width="0.598761" stroke-linecap="round" stroke-linejoin="round" fill="none" transform="matrix(-1.84043e-16 -1.00188 1 -1.83697e-16 0.315659 311)"/><path d="M93.6645 217.65 93.6645 227.479" stroke="#000000" stroke-width="0.598761" stroke-linecap="round" stroke-linejoin="round" fill="none" transform="matrix(-1.84043e-16 -1.00188 1 -1.83697e-16 0.315659 311)"/><path d="M93.6645 229.924 93.6645 239.704" stroke="#000000" stroke-width="0.598761" stroke-linecap="round" stroke-linejoin="round" fill="none" transform="matrix(-1.84043e-16 -1.00188 1 -1.83697e-16 0.315659 311)"/><path d="M93.6645 242.149 93.6645 251.929" stroke="#000000" stroke-width="0.598761" stroke-linecap="round" stroke-linejoin="round" fill="none" transform="matrix(-1.84043e-16 -1.00188 1 -1.83697e-16 0.315659 311)"/><path d="M93.6645 254.374 93.6645 264.154" stroke="#000000" stroke-width="0.598761" stroke-linecap="round" stroke-linejoin="round" fill="none" transform="matrix(-1.84043e-16 -1.00188 1 -1.83697e-16 0.315659 311)"/><path d="M93.6645 266.598 93.6645 276.378" stroke="#000000" stroke-width="0.598761" stroke-linecap="round" stroke-linejoin="round" fill="none" transform="matrix(-1.84043e-16 -1.00188 1 -1.83697e-16 0.315659 311)"/><path d="M93.6645 278.823 93.6645 288.603" stroke="#000000" stroke-width="0.598761" stroke-linecap="round" stroke-linejoin="round" fill="none" transform="matrix(-1.84043e-16 -1.00188 1 -1.83697e-16 0.315659 311)"/><path d="M93.6645 291.048 93.6645 300.828" stroke="#000000" stroke-width="0.598761" stroke-linecap="round" stroke-linejoin="round" fill="none" transform="matrix(-1.84043e-16 -1.00188 1 -1.83697e-16 0.315659 311)"/><path d="M93.6645 303.273 93.6645 313.052" stroke="#000000" stroke-width="0.598761" stroke-linecap="round" stroke-linejoin="round" fill="none" transform="matrix(-1.84043e-16 -1.00188 1 -1.83697e-16 0.315659 311)"/><path d="M93.6645 315.497 93.6645 325.277" stroke="#000000" stroke-width="0.598761" stroke-linecap="round" stroke-linejoin="round" fill="none" transform="matrix(-1.84043e-16 -1.00188 1 -1.83697e-16 0.315659 311)"/><path d="M93.6645 327.722 93.6645 337.502" stroke="#000000" stroke-width="0.598761" stroke-linecap="round" stroke-linejoin="round" fill="none" transform="matrix(-1.84043e-16 -1.00188 1 -1.83697e-16 0.315659 311)"/><path d="M93.6645 339.947 93.6645 349.726" stroke="#000000" stroke-width="0.598761" stroke-linecap="round" stroke-linejoin="round" fill="none" transform="matrix(-1.84043e-16 -1.00188 1 -1.83697e-16 0.315659 311)"/><path d="M93.6645 352.171 93.6645 362.001" stroke="#000000" stroke-width="0.598761" stroke-linecap="round" stroke-linejoin="round" fill="none" transform="matrix(-1.84043e-16 -1.00188 1 -1.83697e-16 0.315659 311)"/><path d="M93.6645 364.446 93.6645 374.226" stroke="#000000" stroke-width="0.598761" stroke-linecap="round" stroke-linejoin="round" fill="none" transform="matrix(-1.84043e-16 -1.00188 1 -1.83697e-16 0.315659 311)"/><path d="M93.6645 376.671 93.6645 386.45" stroke="#000000" stroke-width="0.598761" stroke-linecap="round" stroke-linejoin="round" fill="none" transform="matrix(-1.84043e-16 -1.00188 1 -1.83697e-16 0.315659 311)"/><path d="M93.6645 388.895 93.6645 398.675" stroke="#000000" stroke-width="0.598761" stroke-linecap="round" stroke-linejoin="round" fill="none" transform="matrix(-1.84043e-16 -1.00188 1 -1.83697e-16 0.315659 311)"/><path d="M93.6645 401.12 93.6645 410.9" stroke="#000000" stroke-width="0.598761" stroke-linecap="round" stroke-linejoin="round" fill="none" transform="matrix(-1.84043e-16 -1.00188 1 -1.83697e-16 0.315659 311)"/><path d="M93.6645 413.345 93.6645 423.125" stroke="#000000" stroke-width="0.598761" stroke-linecap="round" stroke-linejoin="round" fill="none" transform="matrix(-1.84043e-16 -1.00188 1 -1.83697e-16 0.315659 311)"/><path d="M93.6645 425.57 93.6645 435.349" stroke="#000000" stroke-width="0.598761" stroke-linecap="round" stroke-linejoin="round" fill="none" transform="matrix(-1.84043e-16 -1.00188 1 -1.83697e-16 0.315659 311)"/><path d="M93.6645 437.794 93.6645 447.574" stroke="#000000" stroke-width="0.598761" stroke-linecap="round" stroke-linejoin="round" fill="none" transform="matrix(-1.84043e-16 -1.00188 1 -1.83697e-16 0.315659 311)"/><path d="M93.6645 450.019 93.6645 459.799" stroke="#000000" stroke-width="0.598761" stroke-linecap="round" stroke-linejoin="round" fill="none" transform="matrix(-1.84043e-16 -1.00188 1 -1.83697e-16 0.315659 311)"/><path d="M93.6645 462.244 93.6645 472.023" stroke="#000000" stroke-width="0.598761" stroke-linecap="round" stroke-linejoin="round" fill="none" transform="matrix(-1.84043e-16 -1.00188 1 -1.83697e-16 0.315659 311)"/><path d="M93.6645 474.468 93.6645 484.248" stroke="#000000" stroke-width="0.598761" stroke-linecap="round" stroke-linejoin="round" fill="none" transform="matrix(-1.84043e-16 -1.00188 1 -1.83697e-16 0.315659 311)"/><path d="M93.6645 486.693 93.6645 496.523" stroke="#000000" stroke-width="0.598761" stroke-linecap="round" stroke-linejoin="round" fill="none" transform="matrix(-1.84043e-16 -1.00188 1 -1.83697e-16 0.315659 311)"/><path d="M93.6645 498.968 93.6645 508.747" stroke="#000000" stroke-width="0.598761" stroke-linecap="round" stroke-linejoin="round" fill="none" transform="matrix(-1.84043e-16 -1.00188 1 -1.83697e-16 0.315659 311)"/><path d="M93.6645 511.192 93.6645 520.972" stroke="#000000" stroke-width="0.598761" stroke-linecap="round" stroke-linejoin="round" fill="none" transform="matrix(-1.84043e-16 -1.00188 1 -1.83697e-16 0.315659 311)"/><path d="M93.6645 523.417 93.6645 533.197" stroke="#000000" stroke-width="0.598761" stroke-linecap="round" stroke-linejoin="round" fill="none" transform="matrix(-1.84043e-16 -1.00188 1 -1.83697e-16 0.315659 311)"/><path d="M93.6645 535.642 93.6645 545.422" stroke="#000000" stroke-width="0.598761" stroke-linecap="round" stroke-linejoin="round" fill="none" transform="matrix(-1.84043e-16 -1.00188 1 -1.83697e-16 0.315659 311)"/><path d="M93.6645 547.866 93.6645 557.646" stroke="#000000" stroke-width="0.598761" stroke-linecap="round" stroke-linejoin="round" fill="none" transform="matrix(-1.84043e-16 -1.00188 1 -1.83697e-16 0.315659 311)"/><path d="M93.6645 560.091 93.6645 569.871" stroke="#000000" stroke-width="0.598761" stroke-linecap="round" stroke-linejoin="round" fill="none" transform="matrix(-1.84043e-16 -1.00188 1 -1.83697e-16 0.315659 311)"/><path d="M93.6645 572.316 93.6645 582.096" stroke="#000000" stroke-width="0.598761" stroke-linecap="round" stroke-linejoin="round" fill="none" transform="matrix(-1.84043e-16 -1.00188 1 -1.83697e-16 0.315659 311)"/><path d="M93.6645 584.541 93.6645 594.32" stroke="#000000" stroke-width="0.598761" stroke-linecap="round" stroke-linejoin="round" fill="none" transform="matrix(-1.84043e-16 -1.00188 1 -1.83697e-16 0.315659 311)"/><path d="M93.6645 596.765 93.6645 606.545" stroke="#000000" stroke-width="0.598761" stroke-linecap="round" stroke-linejoin="round" fill="none" transform="matrix(-1.84043e-16 -1.00188 1 -1.83697e-16 0.315659 311)"/><path d="M93.6645 608.99 93.6645 613.88 94.912 609.19" stroke="#000000" stroke-width="0.598761" stroke-linecap="round" stroke-linejoin="round" fill="none" transform="matrix(-1.84043e-16 -1.00188 1 -1.83697e-16 0.315659 311)"/><path d="M95.5606 606.795 98.1054 597.364" stroke="#000000" stroke-width="0.598761" stroke-linecap="round" stroke-linejoin="round" fill="none" transform="matrix(-1.84043e-16 -1.00188 1 -1.83697e-16 0.315659 311)"/><path d="M98.7041 595.019 101.249 585.539" stroke="#000000" stroke-width="0.598761" stroke-linecap="round" stroke-linejoin="round" fill="none" transform="matrix(-1.84043e-16 -1.00188 1 -1.83697e-16 0.315659 311)"/><path d="M101.898 583.193 104.392 573.713" stroke="#000000" stroke-width="0.598761" stroke-linecap="round" stroke-linejoin="round" fill="none" transform="matrix(-1.84043e-16 -1.00188 1 -1.83697e-16 0.315659 311)"/><path d="M105.041 571.368 107.586 561.937" stroke="#000000" stroke-width="0.598761" stroke-linecap="round" stroke-linejoin="round" fill="none" transform="matrix(-1.84043e-16 -1.00188 1 -1.83697e-16 0.315659 311)"/><path d="M108.234 559.542 110.729 550.112" stroke="#000000" stroke-width="0.598761" stroke-linecap="round" stroke-linejoin="round" fill="none" transform="matrix(-1.84043e-16 -1.00188 1 -1.83697e-16 0.315659 311)"/><path d="M111.378 547.767 113.923 538.286" stroke="#000000" stroke-width="0.598761" stroke-linecap="round" stroke-linejoin="round" fill="none" transform="matrix(-1.84043e-16 -1.00188 1 -1.83697e-16 0.315659 311)"/><path d="M114.521 535.941 117.066 526.511" stroke="#000000" stroke-width="0.598761" stroke-linecap="round" stroke-linejoin="round" fill="none" transform="matrix(-1.84043e-16 -1.00188 1 -1.83697e-16 0.315659 311)"/><path d="M117.715 524.116 120.26 514.685" stroke="#000000" stroke-width="0.598761" stroke-linecap="round" stroke-linejoin="round" fill="none" transform="matrix(-1.84043e-16 -1.00188 1 -1.83697e-16 0.315659 311)"/><path d="M120.858 512.29 123.403 502.86" stroke="#000000" stroke-width="0.598761" stroke-linecap="round" stroke-linejoin="round" fill="none" transform="matrix(-1.84043e-16 -1.00188 1 -1.83697e-16 0.315659 311)"/><path d="M124.052 500.514 126.596 491.034" stroke="#000000" stroke-width="0.598761" stroke-linecap="round" stroke-linejoin="round" fill="none" transform="matrix(-1.84043e-16 -1.00188 1 -1.83697e-16 0.315659 311)"/><path d="M127.195 488.689 129.74 479.258" stroke="#000000" stroke-width="0.598761" stroke-linecap="round" stroke-linejoin="round" fill="none" transform="matrix(-1.84043e-16 -1.00188 1 -1.83697e-16 0.315659 311)"/><path d="M130.389 476.863 132.883 467.433" stroke="#000000" stroke-width="0.598761" stroke-linecap="round" stroke-linejoin="round" fill="none" transform="matrix(-1.84043e-16 -1.00188 1 -1.83697e-16 0.315659 311)"/><path d="M133.532 465.038 136.077 455.607" stroke="#000000" stroke-width="0.598761" stroke-linecap="round" stroke-linejoin="round" fill="none" transform="matrix(-1.84043e-16 -1.00188 1 -1.83697e-16 0.315659 311)"/><path d="M136.725 453.262 139.22 443.782" stroke="#000000" stroke-width="0.598761" stroke-linecap="round" stroke-linejoin="round" fill="none" transform="matrix(-1.84043e-16 -1.00188 1 -1.83697e-16 0.315659 311)"/><path d="M139.869 441.437 142.414 432.006" stroke="#000000" stroke-width="0.598761" stroke-linecap="round" stroke-linejoin="round" fill="none" transform="matrix(-1.84043e-16 -1.00188 1 -1.83697e-16 0.315659 311)"/><path d="M143.012 429.611 145.557 420.181" stroke="#000000" stroke-width="0.598761" stroke-linecap="round" stroke-linejoin="round" fill="none" transform="matrix(-1.84043e-16 -1.00188 1 -1.83697e-16 0.315659 311)"/><path d="M146.206 417.836 148.751 408.355" stroke="#000000" stroke-width="0.598761" stroke-linecap="round" stroke-linejoin="round" fill="none" transform="matrix(-1.84043e-16 -1.00188 1 -1.83697e-16 0.315659 311)"/><path d="M149.349 406.01 151.894 396.53" stroke="#000000" stroke-width="0.598761" stroke-linecap="round" stroke-linejoin="round" fill="none" transform="matrix(-1.84043e-16 -1.00188 1 -1.83697e-16 0.315659 311)"/><path d="M152.543 394.184 155.038 384.754" stroke="#000000" stroke-width="0.598761" stroke-linecap="round" stroke-linejoin="round" fill="none" transform="matrix(-1.84043e-16 -1.00188 1 -1.83697e-16 0.315659 311)"/><path d="M155.686 382.359 158.231 372.928" stroke="#000000" stroke-width="0.598761" stroke-linecap="round" stroke-linejoin="round" fill="none" transform="matrix(-1.84043e-16 -1.00188 1 -1.83697e-16 0.315659 311)"/><path d="M158.88 370.583 161.374 361.103" stroke="#000000" stroke-width="0.598761" stroke-linecap="round" stroke-linejoin="round" fill="none" transform="matrix(-1.84043e-16 -1.00188 1 -1.83697e-16 0.315659 311)"/><path d="M162.023 358.758 164.568 349.277" stroke="#000000" stroke-width="0.598761" stroke-linecap="round" stroke-linejoin="round" fill="none" transform="matrix(-1.84043e-16 -1.00188 1 -1.83697e-16 0.315659 311)"/><path d="M165.217 346.932 167.711 337.502" stroke="#000000" stroke-width="0.598761" stroke-linecap="round" stroke-linejoin="round" fill="none" transform="matrix(-1.84043e-16 -1.00188 1 -1.83697e-16 0.315659 311)"/><path d="M168.36 335.107 170.905 325.676" stroke="#000000" stroke-width="0.598761" stroke-linecap="round" stroke-linejoin="round" fill="none" transform="matrix(-1.84043e-16 -1.00188 1 -1.83697e-16 0.315659 311)"/><path d="M171.503 323.331 174.048 313.851" stroke="#000000" stroke-width="0.598761" stroke-linecap="round" stroke-linejoin="round" fill="none" transform="matrix(-1.84043e-16 -1.00188 1 -1.83697e-16 0.315659 311)"/><path d="M174.697 311.505 177.242 302.025" stroke="#000000" stroke-width="0.598761" stroke-linecap="round" stroke-linejoin="round" fill="none" transform="matrix(-1.84043e-16 -1.00188 1 -1.83697e-16 0.315659 311)"/><path d="M177.84 299.68 180.385 290.249" stroke="#000000" stroke-width="0.598761" stroke-linecap="round" stroke-linejoin="round" fill="none" transform="matrix(-1.84043e-16 -1.00188 1 -1.83697e-16 0.315659 311)"/><path d="M181.034 287.854 183.529 278.424" stroke="#000000" stroke-width="0.598761" stroke-linecap="round" stroke-linejoin="round" fill="none" transform="matrix(-1.84043e-16 -1.00188 1 -1.83697e-16 0.315659 311)"/><path d="M184.177 276.079 186.722 266.598" stroke="#000000" stroke-width="0.598761" stroke-linecap="round" stroke-linejoin="round" fill="none" transform="matrix(-1.84043e-16 -1.00188 1 -1.83697e-16 0.315659 311)"/><path d="M187.371 264.253 189.866 254.823" stroke="#000000" stroke-width="0.598761" stroke-linecap="round" stroke-linejoin="round" fill="none" transform="matrix(-1.84043e-16 -1.00188 1 -1.83697e-16 0.315659 311)"/><path d="M190.514 252.428 193.059 242.997" stroke="#000000" stroke-width="0.598761" stroke-linecap="round" stroke-linejoin="round" fill="none" transform="matrix(-1.84043e-16 -1.00188 1 -1.83697e-16 0.315659 311)"/><path d="M193.658 240.602 196.202 231.172" stroke="#000000" stroke-width="0.598761" stroke-linecap="round" stroke-linejoin="round" fill="none" transform="matrix(-1.84043e-16 -1.00188 1 -1.83697e-16 0.315659 311)"/><path d="M196.851 228.827 199.396 219.346" stroke="#000000" stroke-width="0.598761" stroke-linecap="round" stroke-linejoin="round" fill="none" transform="matrix(-1.84043e-16 -1.00188 1 -1.83697e-16 0.315659 311)"/><path d="M199.995 217.001 202.539 207.571" stroke="#000000" stroke-width="0.598761" stroke-linecap="round" stroke-linejoin="round" fill="none" transform="matrix(-1.84043e-16 -1.00188 1 -1.83697e-16 0.315659 311)"/><path d="M203.188 205.176 205.733 195.745" stroke="#000000" stroke-width="0.598761" stroke-linecap="round" stroke-linejoin="round" fill="none" transform="matrix(-1.84043e-16 -1.00188 1 -1.83697e-16 0.315659 311)"/><path d="M206.331 193.35 208.876 183.919" stroke="#000000" stroke-width="0.598761" stroke-linecap="round" stroke-linejoin="round" fill="none" transform="matrix(-1.84043e-16 -1.00188 1 -1.83697e-16 0.315659 311)"/><path d="M209.525 181.574 212.02 172.094" stroke="#000000" stroke-width="0.598761" stroke-linecap="round" stroke-linejoin="round" fill="none" transform="matrix(-1.84043e-16 -1.00188 1 -1.83697e-16 0.315659 311)"/><path d="M212.668 169.749 215.213 160.318" stroke="#000000" stroke-width="0.598761" stroke-linecap="round" stroke-linejoin="round" fill="none" transform="matrix(-1.84043e-16 -1.00188 1 -1.83697e-16 0.315659 311)"/><path d="M215.862 157.923 218.357 148.493" stroke="#000000" stroke-width="0.598761" stroke-linecap="round" stroke-linejoin="round" fill="none" transform="matrix(-1.84043e-16 -1.00188 1 -1.83697e-16 0.315659 311)"/><path d="M219.005 146.098 220.253 141.407" stroke="#000000" stroke-width="0.598761" stroke-linecap="round" stroke-linejoin="round" fill="none" transform="matrix(-1.84043e-16 -1.00188 1 -1.83697e-16 0.315659 311)"/><path d="M310.117 89.5148 272.145 231.272 130.389 193.3 168.36 51.5434 310.117 89.5148" stroke="#DBDBDB" stroke-width="0.598761" stroke-linecap="round" stroke-linejoin="round" fill="none" transform="matrix(-1.84043e-16 -1.00188 1 -1.83697e-16 0.315659 311)"/><path d="M343.015 150.439C345.262 150.439 347.082 148.618 347.082 146.372 347.082 144.126 345.262 142.306 343.015 142.306 340.769 142.306 338.949 144.126 338.949 146.372 338.949 148.618 340.769 150.439 343.015 150.439" stroke="#DBDBDB" stroke-width="0.598761" stroke-linecap="round" stroke-linejoin="round" fill="none" transform="matrix(-1.84043e-16 -1.00188 1 -1.83697e-16 -4.67402 433.969)"/><path d="M224.194 142.455 220.253 141.407 221.3 137.466" stroke="#DBDBDB" stroke-width="0.598761" stroke-linecap="round" stroke-linejoin="round" fill="none" transform="matrix(-1.84043e-16 -1.00188 1 -1.83697e-16 0.315659 311)"/><path d="M219.205 145.349 220.253 141.407 216.411 140.36" stroke="#DBDBDB" stroke-width="0.598761" stroke-linecap="round" stroke-linejoin="round" fill="none" transform="matrix(-1.84043e-16 -1.00188 1 -1.83697e-16 0.315659 311)"/><text font-family="Arial,Arial_MSFontService,sans-serif" font-weight="400" font-size="14" transform="matrix(0.831613 -2.03782e-16 2.03974e-16 0.833177 458.568 258)">Arc Center</text><path d="M88.3755 607.543 93.6645 613.88 86.6291 609.589 88.3755 607.543Z" transform="matrix(-1.84043e-16 -1.00188 1 -1.83697e-16 0.315659 311)"/><path d="M87.4773 608.541 57.0902 582.146 57.0902 516.93" stroke="#000000" stroke-width="0.598761" stroke-linecap="round" stroke-linejoin="round" fill="none" transform="matrix(-1.84043e-16 -1.00188 1 -1.83697e-16 0.315659 311)"/><text font-family="Arial,Arial_MSFontService,sans-serif" font-weight="400" font-size="14" transform="matrix(0.831613 -2.03782e-16 2.03974e-16 0.833177 234.98 307)">Tracking center at start of maneuver</text><path d="M85.6811 126.987 93.6645 124.742 86.8786 129.432 85.6811 126.987Z" transform="matrix(-1.84043e-16 -1.00188 1 -1.83697e-16 0.315659 311)"/><path d="M86.2798 128.185 6.74438 165.607 6.74438 230.872" stroke="#000000" stroke-width="0.598761" stroke-linecap="round" stroke-linejoin="round" fill="none" transform="matrix(-1.84043e-16 -1.00188 1 -1.83697e-16 0.315659 311)"/><text font-family="Arial,Arial_MSFontService,sans-serif" font-weight="400" font-size="14" transform="matrix(0.831613 -2.03782e-16 2.03974e-16 0.833177 305.335 69)">Tracking center at end of maneuver</text><path d="M221.001 149.64 220.253 141.407 223.596 148.942 221.001 149.64Z" transform="matrix(-1.84043e-16 -1.00188 1 -1.83697e-16 0.315659 311)"/><path d="M222.298 149.291 244.652 235.962 244.652 301.177" stroke="#000000" stroke-width="0.598761" stroke-linecap="round" stroke-linejoin="round" fill="none" transform="matrix(-1.84043e-16 -1.00188 1 -1.83697e-16 0.315659 311)"/><path d="M220.253 141.407 210.722 138.962 201.142 136.667 191.512 134.621 181.832 132.725 172.152 131.079 162.372 129.582 152.643 128.285 142.813 127.187 133.033 126.339 123.203 125.64 113.374 125.141 103.494 124.842 93.6645 124.742" stroke="#000000" stroke-width="0.598761" stroke-linecap="round" stroke-linejoin="round" fill="none" transform="matrix(-1.84043e-16 -1.00188 1 -1.83697e-16 0.315659 311)"/><path d="M235.571 84.3255 225.641 81.7309 215.662 79.3858 205.633 77.1903 195.604 75.1944 185.524 73.3482 175.395 71.7515 165.217 70.3045 155.038 69.0571 144.859 68.0093 134.63 67.161 124.401 66.4625 114.172 66.0134 103.893 65.714 93.6645 65.6143" stroke="#FF0000" stroke-width="0.598761" stroke-linecap="round" stroke-linejoin="round" fill="none" transform="matrix(-1.84043e-16 -1.00188 1 -1.83697e-16 0.315659 311)"/><path d="M204.984 198.489 195.903 196.144 186.722 194.049 177.541 192.103 168.36 190.356 159.079 188.859 149.798 187.512 140.468 186.414 131.137 185.466 121.806 184.768 112.426 184.269 103.045 183.919 93.6645 183.82" stroke="#00DD00" stroke-width="0.598761" stroke-linecap="round" stroke-linejoin="round" fill="none" transform="matrix(-1.84043e-16 -1.00188 1 -1.83697e-16 0.315659 311)"/><path d="M205.034 197.99 206.381 187.612" stroke="#00DD00" stroke-width="0.598761" stroke-linecap="round" stroke-linejoin="round" fill="none" transform="matrix(-1.84043e-16 -1.00188 1 -1.83697e-16 0.315659 311)"/><path d="M206.731 185.167 208.078 174.788" stroke="#00DD00" stroke-width="0.598761" stroke-linecap="round" stroke-linejoin="round" fill="none" transform="matrix(-1.84043e-16 -1.00188 1 -1.83697e-16 0.315659 311)"/><path d="M93.7144 183.321 95.1116 172.942" stroke="#00DD00" stroke-width="0.598761" stroke-linecap="round" stroke-linejoin="round" fill="none" transform="matrix(-1.84043e-16 -1.00188 1 -1.83697e-16 0.315659 311)"/><path d="M95.4109 170.547 96.7581 160.169" stroke="#00DD00" stroke-width="0.598761" stroke-linecap="round" stroke-linejoin="round" fill="none" transform="matrix(-1.84043e-16 -1.00188 1 -1.83697e-16 0.315659 311)"/><path d="M206.481 175.886 196.801 173.491 187.071 171.345 177.292 169.4 167.462 167.653 157.582 166.156" stroke="#00DD00" stroke-width="0.598761" stroke-linecap="round" stroke-linejoin="round" fill="none" transform="matrix(-1.84043e-16 -1.00188 1 -1.83697e-16 0.315659 311)"/><path d="M147.803 164.859 137.873 163.761 127.944 162.913 117.964 162.264 108.035 161.815 98.0555 161.616" stroke="#00DD00" stroke-width="0.598761" stroke-linecap="round" stroke-linejoin="round" fill="none" transform="matrix(-1.84043e-16 -1.00188 1 -1.83697e-16 0.315659 311)"/><path d="M206.531 175.637 206.431 176.136 207.878 176.285 206.531 175.637Z" fill="#00DD00" transform="matrix(-1.84043e-16 -1.00188 1 -1.83697e-16 0.315659 311)"/><path d="M98.0555 161.865 98.0555 161.366 96.5586 161.616 98.0555 161.865Z" fill="#00DD00" transform="matrix(-1.84043e-16 -1.00188 1 -1.83697e-16 0.315659 311)"/><text fill="#00DD00" font-family="Arial,Arial_MSFontService,sans-serif" font-weight="400" font-size="14" transform="matrix(0.831613 -2.03782e-16 2.03974e-16 0.833177 148.01 162)">13<tspan font-size="14" x="16" y="3.91335e-15">.</tspan><tspan font-size="14" x="20" y="4.89169e-15">810</tspan></text><path d="M272.112 152.235C275.786 152.235 278.765 149.256 278.765 145.582 278.765 141.908 275.786 138.929 272.112 138.929" stroke="#00DD00" stroke-width="0.598761" stroke-linecap="round" stroke-linejoin="round" fill="none" transform="matrix(-1.84043e-16 -1.00188 1 -1.83697e-16 -4.67402 433.969)"/><path d="M235.621 83.7767 236.519 77.2402" stroke="#FF0000" stroke-width="0.598761" stroke-linecap="round" stroke-linejoin="round" fill="none" transform="matrix(-1.84043e-16 -1.00188 1 -1.83697e-16 0.315659 311)"/><path d="M236.818 74.8451 238.116 65.1153" stroke="#FF0000" stroke-width="0.598761" stroke-linecap="round" stroke-linejoin="round" fill="none" transform="matrix(-1.84043e-16 -1.00188 1 -1.83697e-16 0.315659 311)"/><path d="M238.415 62.7202 239.712 52.9904" stroke="#FF0000" stroke-width="0.598761" stroke-linecap="round" stroke-linejoin="round" fill="none" transform="matrix(-1.84043e-16 -1.00188 1 -1.83697e-16 0.315659 311)"/><path d="M240.012 50.5953 240.86 44.0588" stroke="#FF0000" stroke-width="0.598761" stroke-linecap="round" stroke-linejoin="round" fill="none" transform="matrix(-1.84043e-16 -1.00188 1 -1.83697e-16 0.315659 311)"/><path d="M93.7144 65.1153 94.5627 58.5788" stroke="#FF0000" stroke-width="0.598761" stroke-linecap="round" stroke-linejoin="round" fill="none" transform="matrix(-1.84043e-16 -1.00188 1 -1.83697e-16 0.315659 311)"/><path d="M94.912 56.1339 96.1594 46.4539" stroke="#FF0000" stroke-width="0.598761" stroke-linecap="round" stroke-linejoin="round" fill="none" transform="matrix(-1.84043e-16 -1.00188 1 -1.83697e-16 0.315659 311)"/><path d="M96.5087 44.0089 97.7561 34.329" stroke="#FF0000" stroke-width="0.598761" stroke-linecap="round" stroke-linejoin="round" fill="none" transform="matrix(-1.84043e-16 -1.00188 1 -1.83697e-16 0.315659 311)"/><path d="M98.1054 31.884 98.9536 25.3975" stroke="#FF0000" stroke-width="0.598761" stroke-linecap="round" stroke-linejoin="round" fill="none" transform="matrix(-1.84043e-16 -1.00188 1 -1.83697e-16 0.315659 311)"/><path d="M239.263 45.1566 228.685 42.5619 218.057 40.117 207.379 37.9215 196.701 35.9257 185.974 34.1294 175.196 32.4828" stroke="#FF0000" stroke-width="0.598761" stroke-linecap="round" stroke-linejoin="round" fill="none" transform="matrix(-1.84043e-16 -1.00188 1 -1.83697e-16 0.315659 311)"/><path d="M165.416 31.1855 154.589 29.988 143.711 28.9401 132.883 28.1418 122.006 27.4931 111.128 27.044 100.251 26.8445" stroke="#FF0000" stroke-width="0.598761" stroke-linecap="round" stroke-linejoin="round" fill="none" transform="matrix(-1.84043e-16 -1.00188 1 -1.83697e-16 0.315659 311)"/><path d="M239.313 44.9071 239.213 45.4061 240.66 45.5059 239.313 44.9071Z" fill="#FF0000" transform="matrix(-1.84043e-16 -1.00188 1 -1.83697e-16 0.315659 311)"/><path d="M100.251 27.0939 100.251 26.595 98.754 26.8445 100.251 27.0939Z" fill="#FF0000" transform="matrix(-1.84043e-16 -1.00188 1 -1.83697e-16 0.315659 311)"/><text fill="#FF0000" font-family="Arial,Arial_MSFontService,sans-serif" font-weight="400" font-size="14" transform="matrix(0.831613 -2.03782e-16 2.03974e-16 0.833177 14.3865 144)">17.606</text><path d="M289.726 18.6115C293.4 18.6115 296.378 15.6329 296.378 11.9586 296.378 8.28429 293.4 5.30569 289.726 5.30569" stroke="#FF0000" stroke-width="0.598761" stroke-linecap="round" stroke-linejoin="round" fill="none" transform="matrix(-1.84043e-16 -1.00188 1 -1.83697e-16 -4.67402 433.969)"/><path d="M180.685 283.414 173.25 281.567 165.765 279.871 158.281 278.324 150.746 276.977 143.162 275.779" stroke="#000000" stroke-width="0.598761" stroke-linecap="round" stroke-linejoin="round" fill="none" transform="matrix(-1.84043e-16 -1.00188 1 -1.83697e-16 0.315659 311)"/><path d="M133.382 274.482 125.748 273.684 118.114 273.035 110.43 272.586 102.796 272.287 95.1116 272.187" stroke="#000000" stroke-width="0.598761" stroke-linecap="round" stroke-linejoin="round" fill="none" transform="matrix(-1.84043e-16 -1.00188 1 -1.83697e-16 0.315659 311)"/><path d="M180.734 283.214 180.635 283.663 182.132 283.813 180.734 283.214Z" transform="matrix(-1.84043e-16 -1.00188 1 -1.83697e-16 0.315659 311)"/><path d="M95.1116 272.386 95.1116 271.937 93.6645 272.187 95.1116 272.386Z" transform="matrix(-1.84043e-16 -1.00188 1 -1.83697e-16 0.315659 311)"/><text font-family="Arial,Arial_MSFontService,sans-serif" font-weight="400" font-size="14" transform="matrix(0.831613 -2.03782e-16 2.03974e-16 0.833177 258.631 177)">15<tspan font-size="14" x="16" y="3.91335e-15">.</tspan><tspan font-size="14" x="20" y="4.89169e-15">00</tspan><tspan font-size="14" x="36" y="8.80504e-15"></tspan></text></g></g></svg>