<svg width="290" height="285" xmlns="http://www.w3.org/2000/svg" xmlns:xlink="http://www.w3.org/1999/xlink" overflow="hidden"><defs><clipPath id="clip0"><rect x="0" y="0" width="290" height="285"/></clipPath><clipPath id="clip1"><path d="M410.743 344.814 410.743-59.8141-119.857-59.8141-119.857 344.814 410.743 344.814"/></clipPath><clipPath id="clip2"><path d="M410.743 344.814 410.743-59.8141-119.857-59.8141-119.857 344.814 410.743 344.814"/></clipPath><clipPath id="clip3"><path d="M410.743 344.814 410.743-59.8141-119.857-59.8141-119.857 344.814 410.743 344.814"/></clipPath></defs><g clip-path="url(#clip0)"><g clip-path="url(#clip1)"><path d="M199.172 103.298 199.172 117.513" stroke="#000000" stroke-width="0.631791" stroke-linecap="round" stroke-linejoin="round" fill="none" transform="matrix(-1.83873e-16 -1.00096 1 -1.83697e-16 0.0784339 285)"/><path d="M199.172 117.513 85.5551 117.513 85.5551 103.298 199.172 103.298" stroke="#000000" stroke-width="0.631791" stroke-linecap="round" stroke-linejoin="round" fill="none" transform="matrix(-1.83873e-16 -1.00096 1 -1.83697e-16 0.0784339 285)"/><path d="M284.411 110.406 284.411 110.406" stroke="#000000" stroke-width="0.631791" stroke-linecap="round" stroke-linejoin="round" fill="none" transform="matrix(-1.83873e-16 -1.00096 1 -1.83697e-16 0.0784339 285)"/><path d="M274.461 110.406 274.461 110.406" stroke="#000000" stroke-width="0.631791" stroke-linecap="round" stroke-linejoin="round" fill="none" transform="matrix(-1.83873e-16 -1.00096 1 -1.83697e-16 0.0784339 285)"/><path d="M265.931 110.406 265.931 110.406" stroke="#000000" stroke-width="0.631791" stroke-linecap="round" stroke-linejoin="round" fill="none" transform="matrix(-1.83873e-16 -1.00096 1 -1.83697e-16 0.0784339 285)"/><path d="M257.455 110.406 257.455 110.406" stroke="#000000" stroke-width="0.631791" stroke-linecap="round" stroke-linejoin="round" fill="none" transform="matrix(-1.83873e-16 -1.00096 1 -1.83697e-16 0.0784339 285)"/><path d="M248.926 110.406 248.926 110.406" stroke="#000000" stroke-width="0.631791" stroke-linecap="round" stroke-linejoin="round" fill="none" transform="matrix(-1.83873e-16 -1.00096 1 -1.83697e-16 0.0784339 285)"/><path d="M240.397 110.406 240.397 110.406" stroke="#000000" stroke-width="0.631791" stroke-linecap="round" stroke-linejoin="round" fill="none" transform="matrix(-1.83873e-16 -1.00096 1 -1.83697e-16 0.0784339 285)"/><path d="M231.867 110.406 231.867 110.406" stroke="#000000" stroke-width="0.631791" stroke-linecap="round" stroke-linejoin="round" fill="none" transform="matrix(-1.83873e-16 -1.00096 1 -1.83697e-16 0.0784339 285)"/><path d="M223.338 110.406 223.338 110.406" stroke="#000000" stroke-width="0.631791" stroke-linecap="round" stroke-linejoin="round" fill="none" transform="matrix(-1.83873e-16 -1.00096 1 -1.83697e-16 0.0784339 285)"/><path d="M214.809 110.406 214.809 110.406" stroke="#000000" stroke-width="0.631791" stroke-linecap="round" stroke-linejoin="round" fill="none" transform="matrix(-1.83873e-16 -1.00096 1 -1.83697e-16 0.0784339 285)"/><path d="M206.28 110.406 206.28 110.406" stroke="#000000" stroke-width="0.631791" stroke-linecap="round" stroke-linejoin="round" fill="none" transform="matrix(-1.83873e-16 -1.00096 1 -1.83697e-16 0.0784339 285)"/><path d="M197.751 110.406 197.751 110.406" stroke="#000000" stroke-width="0.631791" stroke-linecap="round" stroke-linejoin="round" fill="none" transform="matrix(-1.83873e-16 -1.00096 1 -1.83697e-16 0.0784339 285)"/><path d="M189.221 110.406 189.221 110.406" stroke="#000000" stroke-width="0.631791" stroke-linecap="round" stroke-linejoin="round" fill="none" transform="matrix(-1.83873e-16 -1.00096 1 -1.83697e-16 0.0784339 285)"/><path d="M180.745 110.406 180.745 110.406" stroke="#000000" stroke-width="0.631791" stroke-linecap="round" stroke-linejoin="round" fill="none" transform="matrix(-1.83873e-16 -1.00096 1 -1.83697e-16 0.0784339 285)"/><path d="M172.216 110.406 172.216 110.406" stroke="#000000" stroke-width="0.631791" stroke-linecap="round" stroke-linejoin="round" fill="none" transform="matrix(-1.83873e-16 -1.00096 1 -1.83697e-16 0.0784339 285)"/><path d="M163.687 110.406 163.687 110.406" stroke="#000000" stroke-width="0.631791" stroke-linecap="round" stroke-linejoin="round" fill="none" transform="matrix(-1.83873e-16 -1.00096 1 -1.83697e-16 0.0784339 285)"/><path d="M155.157 110.406 155.157 110.406" stroke="#000000" stroke-width="0.631791" stroke-linecap="round" stroke-linejoin="round" fill="none" transform="matrix(-1.83873e-16 -1.00096 1 -1.83697e-16 0.0784339 285)"/><path d="M146.628 110.406 146.628 110.406" stroke="#000000" stroke-width="0.631791" stroke-linecap="round" stroke-linejoin="round" fill="none" transform="matrix(-1.83873e-16 -1.00096 1 -1.83697e-16 0.0784339 285)"/><path d="M138.099 110.406 138.099 110.406" stroke="#000000" stroke-width="0.631791" stroke-linecap="round" stroke-linejoin="round" fill="none" transform="matrix(-1.83873e-16 -1.00096 1 -1.83697e-16 0.0784339 285)"/><path d="M129.57 110.406 129.57 110.406" stroke="#000000" stroke-width="0.631791" stroke-linecap="round" stroke-linejoin="round" fill="none" transform="matrix(-1.83873e-16 -1.00096 1 -1.83697e-16 0.0784339 285)"/><path d="M121.041 110.406 121.041 110.406" stroke="#000000" stroke-width="0.631791" stroke-linecap="round" stroke-linejoin="round" fill="none" transform="matrix(-1.83873e-16 -1.00096 1 -1.83697e-16 0.0784339 285)"/><path d="M112.511 110.406 112.511 110.406" stroke="#000000" stroke-width="0.631791" stroke-linecap="round" stroke-linejoin="round" fill="none" transform="matrix(-1.83873e-16 -1.00096 1 -1.83697e-16 0.0784339 285)"/><path d="M103.982 110.406 103.982 110.406" stroke="#000000" stroke-width="0.631791" stroke-linecap="round" stroke-linejoin="round" fill="none" transform="matrix(-1.83873e-16 -1.00096 1 -1.83697e-16 0.0784339 285)"/><path d="M95.5058 110.406 95.5058 110.406" stroke="#000000" stroke-width="0.631791" stroke-linecap="round" stroke-linejoin="round" fill="none" transform="matrix(-1.83873e-16 -1.00096 1 -1.83697e-16 0.0784339 285)"/><path d="M86.9766 110.406 86.9766 110.406" stroke="#000000" stroke-width="0.631791" stroke-linecap="round" stroke-linejoin="round" fill="none" transform="matrix(-1.83873e-16 -1.00096 1 -1.83697e-16 0.0784339 285)"/><path d="M78.4474 110.406 78.4474 110.406" stroke="#000000" stroke-width="0.631791" stroke-linecap="round" stroke-linejoin="round" fill="none" transform="matrix(-1.83873e-16 -1.00096 1 -1.83697e-16 0.0784339 285)"/><path d="M69.9182 110.406 69.9182 110.406" stroke="#000000" stroke-width="0.631791" stroke-linecap="round" stroke-linejoin="round" fill="none" transform="matrix(-1.83873e-16 -1.00096 1 -1.83697e-16 0.0784339 285)"/><path d="M61.3891 110.406 61.3891 110.406" stroke="#000000" stroke-width="0.631791" stroke-linecap="round" stroke-linejoin="round" fill="none" transform="matrix(-1.83873e-16 -1.00096 1 -1.83697e-16 0.0784339 285)"/><path d="M52.8599 110.406 52.8599 110.406" stroke="#000000" stroke-width="0.631791" stroke-linecap="round" stroke-linejoin="round" fill="none" transform="matrix(-1.83873e-16 -1.00096 1 -1.83697e-16 0.0784339 285)"/><path d="M44.3307 110.406 44.3307 110.406" stroke="#000000" stroke-width="0.631791" stroke-linecap="round" stroke-linejoin="round" fill="none" transform="matrix(-1.83873e-16 -1.00096 1 -1.83697e-16 0.0784339 285)"/><path d="M35.8015 110.406 35.8015 110.406" stroke="#000000" stroke-width="0.631791" stroke-linecap="round" stroke-linejoin="round" fill="none" transform="matrix(-1.83873e-16 -1.00096 1 -1.83697e-16 0.0784339 285)"/><path d="M27.2723 110.406 27.2723 110.406" stroke="#000000" stroke-width="0.631791" stroke-linecap="round" stroke-linejoin="round" fill="none" transform="matrix(-1.83873e-16 -1.00096 1 -1.83697e-16 0.0784339 285)"/><path d="M18.7958 110.406 18.7958 110.406" stroke="#000000" stroke-width="0.631791" stroke-linecap="round" stroke-linejoin="round" fill="none" transform="matrix(-1.83873e-16 -1.00096 1 -1.83697e-16 0.0784339 285)"/><path d="M10.2666 110.406 10.2666 110.406" stroke="#000000" stroke-width="0.631791" stroke-linecap="round" stroke-linejoin="round" fill="none" transform="matrix(-1.83873e-16 -1.00096 1 -1.83697e-16 0.0784339 285)"/><path d="M0.315896 110.406 0.315896 110.406" stroke="#000000" stroke-width="0.631791" stroke-linecap="round" stroke-linejoin="round" fill="none" transform="matrix(-1.83873e-16 -1.00096 1 -1.83697e-16 0.0784339 285)"/><path d="M142.364 110.406 142.364 252.453 227.603 252.453" stroke="#000000" stroke-width="0.631791" stroke-linecap="round" stroke-linejoin="round" fill="none" transform="matrix(-1.83873e-16 -1.00096 1 -1.83697e-16 0.0784339 285)"/></g><g clip-path="url(#clip2)"><text font-family="Arial,Arial_MSFontService,sans-serif" font-weight="400" font-size="23" transform="matrix(0.877488 -2.14974e-16 2.15077e-16 0.878328 266.747 114)">Δ<tspan font-size="23" x="15" y="3.6713e-15">y</tspan></text></g><g clip-path="url(#clip3)"><text font-family="Arial,Arial_MSFontService,sans-serif" font-weight="400" font-size="23" transform="matrix(0.877488 -2.14974e-16 2.15077e-16 0.878328 181.508 171)">Δ<tspan font-size="23" x="15" y="3.6713e-15">x</tspan><tspan font-size="23" x="-35.7" y="-173.056">Rotation</tspan><tspan font-size="23" x="-21.24" y="-145.731">Center</tspan></text><path d="M241.713 249.663 227.603 252.453 240.028 245.24 241.713 249.663Z" transform="matrix(-1.83873e-16 -1.00096 1 -1.83697e-16 0.0784339 285)"/><path d="M240.87 247.452 272.723 235.395 272.723 225.181" stroke="#000000" stroke-width="0.631791" stroke-linecap="round" stroke-linejoin="round" fill="none" transform="matrix(-1.83873e-16 -1.00096 1 -1.83697e-16 0.0784339 285)"/><path d="M337.929 445.887C341.84 445.887 345.011 442.716 345.011 438.805 345.011 434.894 341.84 431.724 337.929 431.724 334.018 431.724 330.848 434.894 330.848 438.805 330.848 442.716 334.018 445.887 337.929 445.887" stroke="#000000" stroke-width="0.631791" stroke-linecap="round" stroke-linejoin="round" fill="none" transform="matrix(-1.83873e-16 -1.00096 1 -1.83697e-16 -186.3 395.406)"/><path d="M269.512 84.8706 267.774 91.715 262.035 90.3988 256.191 89.2932 250.347 88.3455 244.503 87.661 238.607 87.1346 232.71 86.8713 226.76 86.8187 220.864 86.924 214.967 87.2925 209.07 87.819 203.226 88.6087 197.382 89.5564 191.591 90.7673 185.852 92.1362 180.166 93.7157 174.532 95.5058 168.952 97.5065 163.423 99.7177 158.053 102.087 152.736 104.667 147.471 107.457 142.364 110.406" stroke="#000000" stroke-width="0.631791" stroke-linecap="round" stroke-linejoin="round" fill="none" transform="matrix(-1.83873e-16 -1.00096 1 -1.83697e-16 0.0784339 285)"/><path d="M267.774 91.715 266.037 98.6121" stroke="#000000" stroke-width="0.631791" stroke-linecap="round" stroke-linejoin="round" fill="none" transform="matrix(-1.83873e-16 -1.00096 1 -1.83697e-16 0.0784339 285)"/><path d="M269.512 84.8706 281.568 95.1899 266.037 98.6121" stroke="#000000" stroke-width="0.631791" stroke-linecap="round" stroke-linejoin="round" fill="none" transform="matrix(-1.83873e-16 -1.00096 1 -1.83697e-16 0.0784339 285)"/><text font-family="Arial,Arial_MSFontService,sans-serif" font-weight="400" font-size="23" transform="matrix(0.877488 -2.14974e-16 2.15077e-16 0.878328 0.0784339 71)">Direction<tspan font-size="23" x="1.02" y="27.3246">of Motion</tspan></text><path d="M142.364 110.406 227.603 252.453" stroke="#000000" stroke-width="0.631791" stroke-linecap="round" stroke-linejoin="round" fill="none" transform="matrix(-1.83873e-16 -1.00096 1 -1.83697e-16 0.0784339 285)"/><text font-family="Arial,Arial_MSFontService,sans-serif" font-weight="400" font-size="23" transform="matrix(0.877488 -2.14974e-16 2.15077e-16 0.878328 172.347 91)">r</text><path d="M252.717 367.808C265.595 367.806 278.229 364.307 289.273 357.682" stroke="#000000" stroke-width="0.631791" stroke-linecap="round" stroke-linejoin="round" fill="none" transform="matrix(-1.83873e-16 -1.00096 1 -1.83697e-16 -186.3 395.406)"/><text font-family="Arial,Arial_MSFontService,sans-serif" font-weight="400" font-size="25" transform="matrix(0.877488 -2.14974e-16 2.15077e-16 0.878328 184.088 124)">β</text></g></g></svg>