<svg width="622" height="252" xmlns="http://www.w3.org/2000/svg" xmlns:xlink="http://www.w3.org/1999/xlink" overflow="hidden"><defs><clipPath id="clip0"><rect x="0" y="0" width="622" height="252"/></clipPath><clipPath id="clip1"><path d="M749.565 459.388 749.565-207.147-127.493-207.147-127.493 459.388 749.565 459.388"/></clipPath><clipPath id="clip2"><path d="M749.565 459.388 749.565-207.147-127.493-207.147-127.493 459.388 749.565 459.388"/></clipPath><clipPath id="clip3"><path d="M749.565 459.388 749.565-207.147-127.493-207.147-127.493 459.388 749.565 459.388"/></clipPath></defs><g clip-path="url(#clip0)"><g clip-path="url(#clip1)"><path d="M226.712 200.429 226.712 408.667" stroke="#000000" stroke-width="0.867658" stroke-linecap="round" stroke-linejoin="round" fill="none" transform="matrix(-1.83745e-16 -1.00026 1 -1.83697e-16 0.342324 252)"/><path d="M115.579 217.782 115.579 223.567" stroke="#000000" stroke-width="0.867658" stroke-linecap="round" stroke-linejoin="round" fill="none" transform="matrix(-1.83745e-16 -1.00026 1 -1.83697e-16 0.342324 252)"/><path d="M115.579 385.529 115.579 391.314" stroke="#000000" stroke-width="0.867658" stroke-linecap="round" stroke-linejoin="round" fill="none" transform="matrix(-1.83745e-16 -1.00026 1 -1.83697e-16 0.342324 252)"/><path d="M226.712 408.667 18.4739 408.667" stroke="#000000" stroke-width="0.867658" stroke-linecap="round" stroke-linejoin="round" fill="none" transform="matrix(-1.83745e-16 -1.00026 1 -1.83697e-16 0.342324 252)"/><path d="M18.4739 388.422 18.4739 388.422" stroke="#000000" stroke-width="0.867658" stroke-linecap="round" stroke-linejoin="round" fill="none" transform="matrix(-1.83745e-16 -1.00026 1 -1.83697e-16 0.342324 252)"/><path d="M21.9445 388.422 21.9445 388.422" stroke="#000000" stroke-width="0.867658" stroke-linecap="round" stroke-linejoin="round" fill="none" transform="matrix(-1.83745e-16 -1.00026 1 -1.83697e-16 0.342324 252)"/><path d="M25.4151 388.422 25.4151 388.422" stroke="#000000" stroke-width="0.867658" stroke-linecap="round" stroke-linejoin="round" fill="none" transform="matrix(-1.83745e-16 -1.00026 1 -1.83697e-16 0.342324 252)"/><path d="M28.8858 388.422 28.8858 388.422" stroke="#000000" stroke-width="0.867658" stroke-linecap="round" stroke-linejoin="round" fill="none" transform="matrix(-1.83745e-16 -1.00026 1 -1.83697e-16 0.342324 252)"/><path d="M32.3564 388.422 32.3564 388.422" stroke="#000000" stroke-width="0.867658" stroke-linecap="round" stroke-linejoin="round" fill="none" transform="matrix(-1.83745e-16 -1.00026 1 -1.83697e-16 0.342324 252)"/><path d="M35.827 388.422 35.827 388.422" stroke="#000000" stroke-width="0.867658" stroke-linecap="round" stroke-linejoin="round" fill="none" transform="matrix(-1.83745e-16 -1.00026 1 -1.83697e-16 0.342324 252)"/><path d="M39.2977 388.422 39.2977 388.422" stroke="#000000" stroke-width="0.867658" stroke-linecap="round" stroke-linejoin="round" fill="none" transform="matrix(-1.83745e-16 -1.00026 1 -1.83697e-16 0.342324 252)"/><path d="M42.7683 388.422 42.7683 388.422" stroke="#000000" stroke-width="0.867658" stroke-linecap="round" stroke-linejoin="round" fill="none" transform="matrix(-1.83745e-16 -1.00026 1 -1.83697e-16 0.342324 252)"/><path d="M46.2389 388.422 46.2389 388.422" stroke="#000000" stroke-width="0.867658" stroke-linecap="round" stroke-linejoin="round" fill="none" transform="matrix(-1.83745e-16 -1.00026 1 -1.83697e-16 0.342324 252)"/><path d="M49.7096 388.422 49.7096 388.422" stroke="#000000" stroke-width="0.867658" stroke-linecap="round" stroke-linejoin="round" fill="none" transform="matrix(-1.83745e-16 -1.00026 1 -1.83697e-16 0.342324 252)"/><path d="M53.1802 388.422 53.1802 388.422" stroke="#000000" stroke-width="0.867658" stroke-linecap="round" stroke-linejoin="round" fill="none" transform="matrix(-1.83745e-16 -1.00026 1 -1.83697e-16 0.342324 252)"/><path d="M56.6508 388.422 56.6508 388.422" stroke="#000000" stroke-width="0.867658" stroke-linecap="round" stroke-linejoin="round" fill="none" transform="matrix(-1.83745e-16 -1.00026 1 -1.83697e-16 0.342324 252)"/><path d="M60.1215 388.422 60.1215 388.422" stroke="#000000" stroke-width="0.867658" stroke-linecap="round" stroke-linejoin="round" fill="none" transform="matrix(-1.83745e-16 -1.00026 1 -1.83697e-16 0.342324 252)"/><path d="M63.5921 388.422 63.5921 388.422" stroke="#000000" stroke-width="0.867658" stroke-linecap="round" stroke-linejoin="round" fill="none" transform="matrix(-1.83745e-16 -1.00026 1 -1.83697e-16 0.342324 252)"/><path d="M67.0627 388.422 67.0627 388.422" stroke="#000000" stroke-width="0.867658" stroke-linecap="round" stroke-linejoin="round" fill="none" transform="matrix(-1.83745e-16 -1.00026 1 -1.83697e-16 0.342324 252)"/><path d="M70.5334 388.422 70.5334 388.422" stroke="#000000" stroke-width="0.867658" stroke-linecap="round" stroke-linejoin="round" fill="none" transform="matrix(-1.83745e-16 -1.00026 1 -1.83697e-16 0.342324 252)"/><path d="M74.004 388.422 74.004 388.422" stroke="#000000" stroke-width="0.867658" stroke-linecap="round" stroke-linejoin="round" fill="none" transform="matrix(-1.83745e-16 -1.00026 1 -1.83697e-16 0.342324 252)"/><path d="M77.4746 388.422 77.4746 388.422" stroke="#000000" stroke-width="0.867658" stroke-linecap="round" stroke-linejoin="round" fill="none" transform="matrix(-1.83745e-16 -1.00026 1 -1.83697e-16 0.342324 252)"/><path d="M80.9452 388.422 80.9452 388.422" stroke="#000000" stroke-width="0.867658" stroke-linecap="round" stroke-linejoin="round" fill="none" transform="matrix(-1.83745e-16 -1.00026 1 -1.83697e-16 0.342324 252)"/><path d="M84.4159 388.422 84.4159 388.422" stroke="#000000" stroke-width="0.867658" stroke-linecap="round" stroke-linejoin="round" fill="none" transform="matrix(-1.83745e-16 -1.00026 1 -1.83697e-16 0.342324 252)"/><path d="M87.8865 388.422 87.8865 388.422" stroke="#000000" stroke-width="0.867658" stroke-linecap="round" stroke-linejoin="round" fill="none" transform="matrix(-1.83745e-16 -1.00026 1 -1.83697e-16 0.342324 252)"/><path d="M91.3571 388.422 91.3571 388.422" stroke="#000000" stroke-width="0.867658" stroke-linecap="round" stroke-linejoin="round" fill="none" transform="matrix(-1.83745e-16 -1.00026 1 -1.83697e-16 0.342324 252)"/><path d="M94.8278 388.422 94.8278 388.422" stroke="#000000" stroke-width="0.867658" stroke-linecap="round" stroke-linejoin="round" fill="none" transform="matrix(-1.83745e-16 -1.00026 1 -1.83697e-16 0.342324 252)"/><path d="M98.2984 388.422 98.2984 388.422" stroke="#000000" stroke-width="0.867658" stroke-linecap="round" stroke-linejoin="round" fill="none" transform="matrix(-1.83745e-16 -1.00026 1 -1.83697e-16 0.342324 252)"/><path d="M101.769 388.422 101.769 388.422" stroke="#000000" stroke-width="0.867658" stroke-linecap="round" stroke-linejoin="round" fill="none" transform="matrix(-1.83745e-16 -1.00026 1 -1.83697e-16 0.342324 252)"/><path d="M105.24 388.422 105.24 388.422" stroke="#000000" stroke-width="0.867658" stroke-linecap="round" stroke-linejoin="round" fill="none" transform="matrix(-1.83745e-16 -1.00026 1 -1.83697e-16 0.342324 252)"/><path d="M108.71 388.422 108.71 388.422" stroke="#000000" stroke-width="0.867658" stroke-linecap="round" stroke-linejoin="round" fill="none" transform="matrix(-1.83745e-16 -1.00026 1 -1.83697e-16 0.342324 252)"/><path d="M112.181 388.422 112.181 388.422" stroke="#000000" stroke-width="0.867658" stroke-linecap="round" stroke-linejoin="round" fill="none" transform="matrix(-1.83745e-16 -1.00026 1 -1.83697e-16 0.342324 252)"/><path d="M115.652 388.422 115.652 388.422" stroke="#000000" stroke-width="0.867658" stroke-linecap="round" stroke-linejoin="round" fill="none" transform="matrix(-1.83745e-16 -1.00026 1 -1.83697e-16 0.342324 252)"/><path d="M119.122 388.422 119.122 388.422" stroke="#000000" stroke-width="0.867658" stroke-linecap="round" stroke-linejoin="round" fill="none" transform="matrix(-1.83745e-16 -1.00026 1 -1.83697e-16 0.342324 252)"/><path d="M122.593 388.422 122.593 388.422" stroke="#000000" stroke-width="0.867658" stroke-linecap="round" stroke-linejoin="round" fill="none" transform="matrix(-1.83745e-16 -1.00026 1 -1.83697e-16 0.342324 252)"/><path d="M126.063 388.422 126.063 388.422" stroke="#000000" stroke-width="0.867658" stroke-linecap="round" stroke-linejoin="round" fill="none" transform="matrix(-1.83745e-16 -1.00026 1 -1.83697e-16 0.342324 252)"/><path d="M129.534 388.422 129.534 388.422" stroke="#000000" stroke-width="0.867658" stroke-linecap="round" stroke-linejoin="round" fill="none" transform="matrix(-1.83745e-16 -1.00026 1 -1.83697e-16 0.342324 252)"/><path d="M133.005 388.422 133.005 388.422" stroke="#000000" stroke-width="0.867658" stroke-linecap="round" stroke-linejoin="round" fill="none" transform="matrix(-1.83745e-16 -1.00026 1 -1.83697e-16 0.342324 252)"/><path d="M136.475 388.422 136.475 388.422" stroke="#000000" stroke-width="0.867658" stroke-linecap="round" stroke-linejoin="round" fill="none" transform="matrix(-1.83745e-16 -1.00026 1 -1.83697e-16 0.342324 252)"/><path d="M139.946 388.422 139.946 388.422" stroke="#000000" stroke-width="0.867658" stroke-linecap="round" stroke-linejoin="round" fill="none" transform="matrix(-1.83745e-16 -1.00026 1 -1.83697e-16 0.342324 252)"/><path d="M143.417 388.422 143.417 388.422" stroke="#000000" stroke-width="0.867658" stroke-linecap="round" stroke-linejoin="round" fill="none" transform="matrix(-1.83745e-16 -1.00026 1 -1.83697e-16 0.342324 252)"/><path d="M146.887 388.422 146.887 388.422" stroke="#000000" stroke-width="0.867658" stroke-linecap="round" stroke-linejoin="round" fill="none" transform="matrix(-1.83745e-16 -1.00026 1 -1.83697e-16 0.342324 252)"/><path d="M150.358 388.422 150.358 388.422" stroke="#000000" stroke-width="0.867658" stroke-linecap="round" stroke-linejoin="round" fill="none" transform="matrix(-1.83745e-16 -1.00026 1 -1.83697e-16 0.342324 252)"/><path d="M153.829 388.422 153.829 388.422" stroke="#000000" stroke-width="0.867658" stroke-linecap="round" stroke-linejoin="round" fill="none" transform="matrix(-1.83745e-16 -1.00026 1 -1.83697e-16 0.342324 252)"/><path d="M157.299 388.422 157.299 388.422" stroke="#000000" stroke-width="0.867658" stroke-linecap="round" stroke-linejoin="round" fill="none" transform="matrix(-1.83745e-16 -1.00026 1 -1.83697e-16 0.342324 252)"/><path d="M160.77 388.422 160.77 388.422" stroke="#000000" stroke-width="0.867658" stroke-linecap="round" stroke-linejoin="round" fill="none" transform="matrix(-1.83745e-16 -1.00026 1 -1.83697e-16 0.342324 252)"/><path d="M164.24 388.422 164.24 388.422" stroke="#000000" stroke-width="0.867658" stroke-linecap="round" stroke-linejoin="round" fill="none" transform="matrix(-1.83745e-16 -1.00026 1 -1.83697e-16 0.342324 252)"/><path d="M167.711 388.422 167.711 388.422" stroke="#000000" stroke-width="0.867658" stroke-linecap="round" stroke-linejoin="round" fill="none" transform="matrix(-1.83745e-16 -1.00026 1 -1.83697e-16 0.342324 252)"/><path d="M171.182 388.422 171.182 388.422" stroke="#000000" stroke-width="0.867658" stroke-linecap="round" stroke-linejoin="round" fill="none" transform="matrix(-1.83745e-16 -1.00026 1 -1.83697e-16 0.342324 252)"/><path d="M174.652 388.422 174.652 388.422" stroke="#000000" stroke-width="0.867658" stroke-linecap="round" stroke-linejoin="round" fill="none" transform="matrix(-1.83745e-16 -1.00026 1 -1.83697e-16 0.342324 252)"/><path d="M178.123 388.422 178.123 388.422" stroke="#000000" stroke-width="0.867658" stroke-linecap="round" stroke-linejoin="round" fill="none" transform="matrix(-1.83745e-16 -1.00026 1 -1.83697e-16 0.342324 252)"/><path d="M181.594 388.422 181.594 388.422" stroke="#000000" stroke-width="0.867658" stroke-linecap="round" stroke-linejoin="round" fill="none" transform="matrix(-1.83745e-16 -1.00026 1 -1.83697e-16 0.342324 252)"/><path d="M185.064 388.422 185.064 388.422" stroke="#000000" stroke-width="0.867658" stroke-linecap="round" stroke-linejoin="round" fill="none" transform="matrix(-1.83745e-16 -1.00026 1 -1.83697e-16 0.342324 252)"/><path d="M188.535 388.422 188.535 388.422" stroke="#000000" stroke-width="0.867658" stroke-linecap="round" stroke-linejoin="round" fill="none" transform="matrix(-1.83745e-16 -1.00026 1 -1.83697e-16 0.342324 252)"/><path d="M192.005 388.422 192.005 388.422" stroke="#000000" stroke-width="0.867658" stroke-linecap="round" stroke-linejoin="round" fill="none" transform="matrix(-1.83745e-16 -1.00026 1 -1.83697e-16 0.342324 252)"/><path d="M195.476 388.422 195.476 388.422" stroke="#000000" stroke-width="0.867658" stroke-linecap="round" stroke-linejoin="round" fill="none" transform="matrix(-1.83745e-16 -1.00026 1 -1.83697e-16 0.342324 252)"/><path d="M198.947 388.422 198.947 388.422" stroke="#000000" stroke-width="0.867658" stroke-linecap="round" stroke-linejoin="round" fill="none" transform="matrix(-1.83745e-16 -1.00026 1 -1.83697e-16 0.342324 252)"/><path d="M202.417 388.422 202.417 388.422" stroke="#000000" stroke-width="0.867658" stroke-linecap="round" stroke-linejoin="round" fill="none" transform="matrix(-1.83745e-16 -1.00026 1 -1.83697e-16 0.342324 252)"/><path d="M205.888 388.422 205.888 388.422" stroke="#000000" stroke-width="0.867658" stroke-linecap="round" stroke-linejoin="round" fill="none" transform="matrix(-1.83745e-16 -1.00026 1 -1.83697e-16 0.342324 252)"/><path d="M209.359 388.422 209.359 388.422" stroke="#000000" stroke-width="0.867658" stroke-linecap="round" stroke-linejoin="round" fill="none" transform="matrix(-1.83745e-16 -1.00026 1 -1.83697e-16 0.342324 252)"/><path d="M212.829 388.422 212.829 388.422" stroke="#000000" stroke-width="0.867658" stroke-linecap="round" stroke-linejoin="round" fill="none" transform="matrix(-1.83745e-16 -1.00026 1 -1.83697e-16 0.342324 252)"/><path d="M216.3 388.422 216.3 388.422" stroke="#000000" stroke-width="0.867658" stroke-linecap="round" stroke-linejoin="round" fill="none" transform="matrix(-1.83745e-16 -1.00026 1 -1.83697e-16 0.342324 252)"/><path d="M219.771 388.422 219.771 388.422" stroke="#000000" stroke-width="0.867658" stroke-linecap="round" stroke-linejoin="round" fill="none" transform="matrix(-1.83745e-16 -1.00026 1 -1.83697e-16 0.342324 252)"/><path d="M223.241 388.422 223.241 388.422" stroke="#000000" stroke-width="0.867658" stroke-linecap="round" stroke-linejoin="round" fill="none" transform="matrix(-1.83745e-16 -1.00026 1 -1.83697e-16 0.342324 252)"/><path d="M226.712 388.422 226.712 388.422" stroke="#000000" stroke-width="0.867658" stroke-linecap="round" stroke-linejoin="round" fill="none" transform="matrix(-1.83745e-16 -1.00026 1 -1.83697e-16 0.342324 252)"/><path d="M35.827 298.33 30.0427 298.33" stroke="#000000" stroke-width="0.867658" stroke-linecap="round" stroke-linejoin="round" fill="none" transform="matrix(-1.83745e-16 -1.00026 1 -1.83697e-16 0.342324 252)"/><path d="M115.579 391.314 69.3042 391.314" stroke="#000000" stroke-width="0.867658" stroke-linecap="round" stroke-linejoin="round" fill="none" transform="matrix(-1.83745e-16 -1.00026 1 -1.83697e-16 0.342324 252)"/><path d="M115.579 385.529 69.3042 385.529" stroke="#000000" stroke-width="0.867658" stroke-linecap="round" stroke-linejoin="round" fill="none" transform="matrix(-1.83745e-16 -1.00026 1 -1.83697e-16 0.342324 252)"/><path d="M18.4739 408.667 18.4739 200.429" stroke="#000000" stroke-width="0.867658" stroke-linecap="round" stroke-linejoin="round" fill="none" transform="matrix(-1.83745e-16 -1.00026 1 -1.83697e-16 0.342324 252)"/><path d="M32.9348 200.429 32.9348 200.429" stroke="#000000" stroke-width="0.867658" stroke-linecap="round" stroke-linejoin="round" fill="none" transform="matrix(-1.83745e-16 -1.00026 1 -1.83697e-16 0.342324 252)"/><path d="M32.9348 203.9 32.9348 203.9" stroke="#000000" stroke-width="0.867658" stroke-linecap="round" stroke-linejoin="round" fill="none" transform="matrix(-1.83745e-16 -1.00026 1 -1.83697e-16 0.342324 252)"/><path d="M32.9348 207.37 32.9348 207.37" stroke="#000000" stroke-width="0.867658" stroke-linecap="round" stroke-linejoin="round" fill="none" transform="matrix(-1.83745e-16 -1.00026 1 -1.83697e-16 0.342324 252)"/><path d="M32.9348 210.841 32.9348 210.841" stroke="#000000" stroke-width="0.867658" stroke-linecap="round" stroke-linejoin="round" fill="none" transform="matrix(-1.83745e-16 -1.00026 1 -1.83697e-16 0.342324 252)"/><path d="M32.9348 214.311 32.9348 214.311" stroke="#000000" stroke-width="0.867658" stroke-linecap="round" stroke-linejoin="round" fill="none" transform="matrix(-1.83745e-16 -1.00026 1 -1.83697e-16 0.342324 252)"/><path d="M32.9348 217.782 32.9348 217.782" stroke="#000000" stroke-width="0.867658" stroke-linecap="round" stroke-linejoin="round" fill="none" transform="matrix(-1.83745e-16 -1.00026 1 -1.83697e-16 0.342324 252)"/><path d="M32.9348 221.253 32.9348 221.253" stroke="#000000" stroke-width="0.867658" stroke-linecap="round" stroke-linejoin="round" fill="none" transform="matrix(-1.83745e-16 -1.00026 1 -1.83697e-16 0.342324 252)"/><path d="M32.9348 224.723 32.9348 224.723" stroke="#000000" stroke-width="0.867658" stroke-linecap="round" stroke-linejoin="round" fill="none" transform="matrix(-1.83745e-16 -1.00026 1 -1.83697e-16 0.342324 252)"/><path d="M32.9348 228.194 32.9348 228.194" stroke="#000000" stroke-width="0.867658" stroke-linecap="round" stroke-linejoin="round" fill="none" transform="matrix(-1.83745e-16 -1.00026 1 -1.83697e-16 0.342324 252)"/><path d="M32.9348 231.665 32.9348 231.665" stroke="#000000" stroke-width="0.867658" stroke-linecap="round" stroke-linejoin="round" fill="none" transform="matrix(-1.83745e-16 -1.00026 1 -1.83697e-16 0.342324 252)"/><path d="M32.9348 235.135 32.9348 235.135" stroke="#000000" stroke-width="0.867658" stroke-linecap="round" stroke-linejoin="round" fill="none" transform="matrix(-1.83745e-16 -1.00026 1 -1.83697e-16 0.342324 252)"/><path d="M32.9348 238.606 32.9348 238.606" stroke="#000000" stroke-width="0.867658" stroke-linecap="round" stroke-linejoin="round" fill="none" transform="matrix(-1.83745e-16 -1.00026 1 -1.83697e-16 0.342324 252)"/><path d="M32.9348 242.077 32.9348 242.077" stroke="#000000" stroke-width="0.867658" stroke-linecap="round" stroke-linejoin="round" fill="none" transform="matrix(-1.83745e-16 -1.00026 1 -1.83697e-16 0.342324 252)"/><path d="M32.9348 245.547 32.9348 245.547" stroke="#000000" stroke-width="0.867658" stroke-linecap="round" stroke-linejoin="round" fill="none" transform="matrix(-1.83745e-16 -1.00026 1 -1.83697e-16 0.342324 252)"/><path d="M32.9348 249.018 32.9348 249.018" stroke="#000000" stroke-width="0.867658" stroke-linecap="round" stroke-linejoin="round" fill="none" transform="matrix(-1.83745e-16 -1.00026 1 -1.83697e-16 0.342324 252)"/><path d="M32.9348 252.488 32.9348 252.488" stroke="#000000" stroke-width="0.867658" stroke-linecap="round" stroke-linejoin="round" fill="none" transform="matrix(-1.83745e-16 -1.00026 1 -1.83697e-16 0.342324 252)"/><path d="M32.9348 255.959 32.9348 255.959" stroke="#000000" stroke-width="0.867658" stroke-linecap="round" stroke-linejoin="round" fill="none" transform="matrix(-1.83745e-16 -1.00026 1 -1.83697e-16 0.342324 252)"/><path d="M32.9348 259.43 32.9348 259.43" stroke="#000000" stroke-width="0.867658" stroke-linecap="round" stroke-linejoin="round" fill="none" transform="matrix(-1.83745e-16 -1.00026 1 -1.83697e-16 0.342324 252)"/><path d="M32.9348 262.9 32.9348 262.9" stroke="#000000" stroke-width="0.867658" stroke-linecap="round" stroke-linejoin="round" fill="none" transform="matrix(-1.83745e-16 -1.00026 1 -1.83697e-16 0.342324 252)"/><path d="M32.9348 266.371 32.9348 266.371" stroke="#000000" stroke-width="0.867658" stroke-linecap="round" stroke-linejoin="round" fill="none" transform="matrix(-1.83745e-16 -1.00026 1 -1.83697e-16 0.342324 252)"/><path d="M32.9348 269.842 32.9348 269.842" stroke="#000000" stroke-width="0.867658" stroke-linecap="round" stroke-linejoin="round" fill="none" transform="matrix(-1.83745e-16 -1.00026 1 -1.83697e-16 0.342324 252)"/><path d="M32.9348 273.312 32.9348 273.312" stroke="#000000" stroke-width="0.867658" stroke-linecap="round" stroke-linejoin="round" fill="none" transform="matrix(-1.83745e-16 -1.00026 1 -1.83697e-16 0.342324 252)"/><path d="M32.9348 276.783 32.9348 276.783" stroke="#000000" stroke-width="0.867658" stroke-linecap="round" stroke-linejoin="round" fill="none" transform="matrix(-1.83745e-16 -1.00026 1 -1.83697e-16 0.342324 252)"/><path d="M32.9348 280.253 32.9348 280.253" stroke="#000000" stroke-width="0.867658" stroke-linecap="round" stroke-linejoin="round" fill="none" transform="matrix(-1.83745e-16 -1.00026 1 -1.83697e-16 0.342324 252)"/><path d="M32.9348 283.724 32.9348 283.724" stroke="#000000" stroke-width="0.867658" stroke-linecap="round" stroke-linejoin="round" fill="none" transform="matrix(-1.83745e-16 -1.00026 1 -1.83697e-16 0.342324 252)"/><path d="M32.9348 287.195 32.9348 287.195" stroke="#000000" stroke-width="0.867658" stroke-linecap="round" stroke-linejoin="round" fill="none" transform="matrix(-1.83745e-16 -1.00026 1 -1.83697e-16 0.342324 252)"/><path d="M32.9348 290.665 32.9348 290.665" stroke="#000000" stroke-width="0.867658" stroke-linecap="round" stroke-linejoin="round" fill="none" transform="matrix(-1.83745e-16 -1.00026 1 -1.83697e-16 0.342324 252)"/><path d="M32.9348 294.136 32.9348 294.136" stroke="#000000" stroke-width="0.867658" stroke-linecap="round" stroke-linejoin="round" fill="none" transform="matrix(-1.83745e-16 -1.00026 1 -1.83697e-16 0.342324 252)"/><path d="M32.9348 297.607 32.9348 297.607" stroke="#000000" stroke-width="0.867658" stroke-linecap="round" stroke-linejoin="round" fill="none" transform="matrix(-1.83745e-16 -1.00026 1 -1.83697e-16 0.342324 252)"/><path d="M32.9348 301.077 32.9348 301.077" stroke="#000000" stroke-width="0.867658" stroke-linecap="round" stroke-linejoin="round" fill="none" transform="matrix(-1.83745e-16 -1.00026 1 -1.83697e-16 0.342324 252)"/><path d="M32.9348 304.548 32.9348 304.548" stroke="#000000" stroke-width="0.867658" stroke-linecap="round" stroke-linejoin="round" fill="none" transform="matrix(-1.83745e-16 -1.00026 1 -1.83697e-16 0.342324 252)"/><path d="M32.9348 308.019 32.9348 308.019" stroke="#000000" stroke-width="0.867658" stroke-linecap="round" stroke-linejoin="round" fill="none" transform="matrix(-1.83745e-16 -1.00026 1 -1.83697e-16 0.342324 252)"/><path d="M32.9348 311.489 32.9348 311.489" stroke="#000000" stroke-width="0.867658" stroke-linecap="round" stroke-linejoin="round" fill="none" transform="matrix(-1.83745e-16 -1.00026 1 -1.83697e-16 0.342324 252)"/><path d="M32.9348 314.96 32.9348 314.96" stroke="#000000" stroke-width="0.867658" stroke-linecap="round" stroke-linejoin="round" fill="none" transform="matrix(-1.83745e-16 -1.00026 1 -1.83697e-16 0.342324 252)"/><path d="M32.9348 318.43 32.9348 318.43" stroke="#000000" stroke-width="0.867658" stroke-linecap="round" stroke-linejoin="round" fill="none" transform="matrix(-1.83745e-16 -1.00026 1 -1.83697e-16 0.342324 252)"/><path d="M32.9348 321.901 32.9348 321.901" stroke="#000000" stroke-width="0.867658" stroke-linecap="round" stroke-linejoin="round" fill="none" transform="matrix(-1.83745e-16 -1.00026 1 -1.83697e-16 0.342324 252)"/><path d="M32.9348 325.372 32.9348 325.372" stroke="#000000" stroke-width="0.867658" stroke-linecap="round" stroke-linejoin="round" fill="none" transform="matrix(-1.83745e-16 -1.00026 1 -1.83697e-16 0.342324 252)"/><path d="M32.9348 328.842 32.9348 328.842" stroke="#000000" stroke-width="0.867658" stroke-linecap="round" stroke-linejoin="round" fill="none" transform="matrix(-1.83745e-16 -1.00026 1 -1.83697e-16 0.342324 252)"/><path d="M32.9348 332.313 32.9348 332.313" stroke="#000000" stroke-width="0.867658" stroke-linecap="round" stroke-linejoin="round" fill="none" transform="matrix(-1.83745e-16 -1.00026 1 -1.83697e-16 0.342324 252)"/><path d="M32.9348 335.784 32.9348 335.784" stroke="#000000" stroke-width="0.867658" stroke-linecap="round" stroke-linejoin="round" fill="none" transform="matrix(-1.83745e-16 -1.00026 1 -1.83697e-16 0.342324 252)"/><path d="M32.9348 339.254 32.9348 339.254" stroke="#000000" stroke-width="0.867658" stroke-linecap="round" stroke-linejoin="round" fill="none" transform="matrix(-1.83745e-16 -1.00026 1 -1.83697e-16 0.342324 252)"/><path d="M32.9348 342.725 32.9348 342.725" stroke="#000000" stroke-width="0.867658" stroke-linecap="round" stroke-linejoin="round" fill="none" transform="matrix(-1.83745e-16 -1.00026 1 -1.83697e-16 0.342324 252)"/><path d="M32.9348 346.195 32.9348 346.195" stroke="#000000" stroke-width="0.867658" stroke-linecap="round" stroke-linejoin="round" fill="none" transform="matrix(-1.83745e-16 -1.00026 1 -1.83697e-16 0.342324 252)"/><path d="M32.9348 349.666 32.9348 349.666" stroke="#000000" stroke-width="0.867658" stroke-linecap="round" stroke-linejoin="round" fill="none" transform="matrix(-1.83745e-16 -1.00026 1 -1.83697e-16 0.342324 252)"/><path d="M32.9348 353.137 32.9348 353.137" stroke="#000000" stroke-width="0.867658" stroke-linecap="round" stroke-linejoin="round" fill="none" transform="matrix(-1.83745e-16 -1.00026 1 -1.83697e-16 0.342324 252)"/><path d="M32.9348 356.607 32.9348 356.607" stroke="#000000" stroke-width="0.867658" stroke-linecap="round" stroke-linejoin="round" fill="none" transform="matrix(-1.83745e-16 -1.00026 1 -1.83697e-16 0.342324 252)"/><path d="M32.9348 360.078 32.9348 360.078" stroke="#000000" stroke-width="0.867658" stroke-linecap="round" stroke-linejoin="round" fill="none" transform="matrix(-1.83745e-16 -1.00026 1 -1.83697e-16 0.342324 252)"/><path d="M32.9348 363.549 32.9348 363.549" stroke="#000000" stroke-width="0.867658" stroke-linecap="round" stroke-linejoin="round" fill="none" transform="matrix(-1.83745e-16 -1.00026 1 -1.83697e-16 0.342324 252)"/><path d="M32.9348 367.019 32.9348 367.019" stroke="#000000" stroke-width="0.867658" stroke-linecap="round" stroke-linejoin="round" fill="none" transform="matrix(-1.83745e-16 -1.00026 1 -1.83697e-16 0.342324 252)"/><path d="M32.9348 370.49 32.9348 370.49" stroke="#000000" stroke-width="0.867658" stroke-linecap="round" stroke-linejoin="round" fill="none" transform="matrix(-1.83745e-16 -1.00026 1 -1.83697e-16 0.342324 252)"/><path d="M32.9348 373.961 32.9348 373.961" stroke="#000000" stroke-width="0.867658" stroke-linecap="round" stroke-linejoin="round" fill="none" transform="matrix(-1.83745e-16 -1.00026 1 -1.83697e-16 0.342324 252)"/><path d="M32.9348 377.431 32.9348 377.431" stroke="#000000" stroke-width="0.867658" stroke-linecap="round" stroke-linejoin="round" fill="none" transform="matrix(-1.83745e-16 -1.00026 1 -1.83697e-16 0.342324 252)"/><path d="M32.9348 380.902 32.9348 380.902" stroke="#000000" stroke-width="0.867658" stroke-linecap="round" stroke-linejoin="round" fill="none" transform="matrix(-1.83745e-16 -1.00026 1 -1.83697e-16 0.342324 252)"/><path d="M32.9348 384.372 32.9348 384.372" stroke="#000000" stroke-width="0.867658" stroke-linecap="round" stroke-linejoin="round" fill="none" transform="matrix(-1.83745e-16 -1.00026 1 -1.83697e-16 0.342324 252)"/><path d="M32.9348 387.843 32.9348 387.843" stroke="#000000" stroke-width="0.867658" stroke-linecap="round" stroke-linejoin="round" fill="none" transform="matrix(-1.83745e-16 -1.00026 1 -1.83697e-16 0.342324 252)"/><path d="M32.9348 391.314 32.9348 391.314" stroke="#000000" stroke-width="0.867658" stroke-linecap="round" stroke-linejoin="round" fill="none" transform="matrix(-1.83745e-16 -1.00026 1 -1.83697e-16 0.342324 252)"/><path d="M32.9348 394.784 32.9348 394.784" stroke="#000000" stroke-width="0.867658" stroke-linecap="round" stroke-linejoin="round" fill="none" transform="matrix(-1.83745e-16 -1.00026 1 -1.83697e-16 0.342324 252)"/><path d="M32.9348 398.255 32.9348 398.255" stroke="#000000" stroke-width="0.867658" stroke-linecap="round" stroke-linejoin="round" fill="none" transform="matrix(-1.83745e-16 -1.00026 1 -1.83697e-16 0.342324 252)"/><path d="M32.9348 401.726 32.9348 401.726" stroke="#000000" stroke-width="0.867658" stroke-linecap="round" stroke-linejoin="round" fill="none" transform="matrix(-1.83745e-16 -1.00026 1 -1.83697e-16 0.342324 252)"/><path d="M32.9348 405.196 32.9348 405.196" stroke="#000000" stroke-width="0.867658" stroke-linecap="round" stroke-linejoin="round" fill="none" transform="matrix(-1.83745e-16 -1.00026 1 -1.83697e-16 0.342324 252)"/><path d="M32.9348 408.667 32.9348 408.667" stroke="#000000" stroke-width="0.867658" stroke-linecap="round" stroke-linejoin="round" fill="none" transform="matrix(-1.83745e-16 -1.00026 1 -1.83697e-16 0.342324 252)"/><path d="M30.0427 298.33 30.0427 252.055" stroke="#000000" stroke-width="0.867658" stroke-linecap="round" stroke-linejoin="round" fill="none" transform="matrix(-1.83745e-16 -1.00026 1 -1.83697e-16 0.342324 252)"/><path d="M35.827 298.33 35.827 252.055" stroke="#000000" stroke-width="0.867658" stroke-linecap="round" stroke-linejoin="round" fill="none" transform="matrix(-1.83745e-16 -1.00026 1 -1.83697e-16 0.342324 252)"/><path d="M69.3042 391.314 69.3042 385.529" stroke="#000000" stroke-width="0.867658" stroke-linecap="round" stroke-linejoin="round" fill="none" transform="matrix(-1.83745e-16 -1.00026 1 -1.83697e-16 0.342324 252)"/><path d="M69.3042 223.567 69.3042 217.782" stroke="#000000" stroke-width="0.867658" stroke-linecap="round" stroke-linejoin="round" fill="none" transform="matrix(-1.83745e-16 -1.00026 1 -1.83697e-16 0.342324 252)"/><path d="M18.4739 200.429 226.712 200.429" stroke="#000000" stroke-width="0.867658" stroke-linecap="round" stroke-linejoin="round" fill="none" transform="matrix(-1.83745e-16 -1.00026 1 -1.83697e-16 0.342324 252)"/><path d="M226.712 220.674 226.712 220.674" stroke="#000000" stroke-width="0.867658" stroke-linecap="round" stroke-linejoin="round" fill="none" transform="matrix(-1.83745e-16 -1.00026 1 -1.83697e-16 0.342324 252)"/><path d="M223.241 220.674 223.241 220.674" stroke="#000000" stroke-width="0.867658" stroke-linecap="round" stroke-linejoin="round" fill="none" transform="matrix(-1.83745e-16 -1.00026 1 -1.83697e-16 0.342324 252)"/><path d="M219.771 220.674 219.771 220.674" stroke="#000000" stroke-width="0.867658" stroke-linecap="round" stroke-linejoin="round" fill="none" transform="matrix(-1.83745e-16 -1.00026 1 -1.83697e-16 0.342324 252)"/><path d="M216.3 220.674 216.3 220.674" stroke="#000000" stroke-width="0.867658" stroke-linecap="round" stroke-linejoin="round" fill="none" transform="matrix(-1.83745e-16 -1.00026 1 -1.83697e-16 0.342324 252)"/><path d="M212.829 220.674 212.829 220.674" stroke="#000000" stroke-width="0.867658" stroke-linecap="round" stroke-linejoin="round" fill="none" transform="matrix(-1.83745e-16 -1.00026 1 -1.83697e-16 0.342324 252)"/><path d="M209.359 220.674 209.359 220.674" stroke="#000000" stroke-width="0.867658" stroke-linecap="round" stroke-linejoin="round" fill="none" transform="matrix(-1.83745e-16 -1.00026 1 -1.83697e-16 0.342324 252)"/><path d="M205.888 220.674 205.888 220.674" stroke="#000000" stroke-width="0.867658" stroke-linecap="round" stroke-linejoin="round" fill="none" transform="matrix(-1.83745e-16 -1.00026 1 -1.83697e-16 0.342324 252)"/><path d="M202.417 220.674 202.417 220.674" stroke="#000000" stroke-width="0.867658" stroke-linecap="round" stroke-linejoin="round" fill="none" transform="matrix(-1.83745e-16 -1.00026 1 -1.83697e-16 0.342324 252)"/><path d="M198.947 220.674 198.947 220.674" stroke="#000000" stroke-width="0.867658" stroke-linecap="round" stroke-linejoin="round" fill="none" transform="matrix(-1.83745e-16 -1.00026 1 -1.83697e-16 0.342324 252)"/><path d="M195.476 220.674 195.476 220.674" stroke="#000000" stroke-width="0.867658" stroke-linecap="round" stroke-linejoin="round" fill="none" transform="matrix(-1.83745e-16 -1.00026 1 -1.83697e-16 0.342324 252)"/><path d="M192.005 220.674 192.005 220.674" stroke="#000000" stroke-width="0.867658" stroke-linecap="round" stroke-linejoin="round" fill="none" transform="matrix(-1.83745e-16 -1.00026 1 -1.83697e-16 0.342324 252)"/><path d="M188.535 220.674 188.535 220.674" stroke="#000000" stroke-width="0.867658" stroke-linecap="round" stroke-linejoin="round" fill="none" transform="matrix(-1.83745e-16 -1.00026 1 -1.83697e-16 0.342324 252)"/><path d="M185.064 220.674 185.064 220.674" stroke="#000000" stroke-width="0.867658" stroke-linecap="round" stroke-linejoin="round" fill="none" transform="matrix(-1.83745e-16 -1.00026 1 -1.83697e-16 0.342324 252)"/><path d="M181.594 220.674 181.594 220.674" stroke="#000000" stroke-width="0.867658" stroke-linecap="round" stroke-linejoin="round" fill="none" transform="matrix(-1.83745e-16 -1.00026 1 -1.83697e-16 0.342324 252)"/><path d="M178.123 220.674 178.123 220.674" stroke="#000000" stroke-width="0.867658" stroke-linecap="round" stroke-linejoin="round" fill="none" transform="matrix(-1.83745e-16 -1.00026 1 -1.83697e-16 0.342324 252)"/><path d="M174.652 220.674 174.652 220.674" stroke="#000000" stroke-width="0.867658" stroke-linecap="round" stroke-linejoin="round" fill="none" transform="matrix(-1.83745e-16 -1.00026 1 -1.83697e-16 0.342324 252)"/><path d="M171.182 220.674 171.182 220.674" stroke="#000000" stroke-width="0.867658" stroke-linecap="round" stroke-linejoin="round" fill="none" transform="matrix(-1.83745e-16 -1.00026 1 -1.83697e-16 0.342324 252)"/><path d="M167.711 220.674 167.711 220.674" stroke="#000000" stroke-width="0.867658" stroke-linecap="round" stroke-linejoin="round" fill="none" transform="matrix(-1.83745e-16 -1.00026 1 -1.83697e-16 0.342324 252)"/><path d="M164.24 220.674 164.24 220.674" stroke="#000000" stroke-width="0.867658" stroke-linecap="round" stroke-linejoin="round" fill="none" transform="matrix(-1.83745e-16 -1.00026 1 -1.83697e-16 0.342324 252)"/><path d="M160.77 220.674 160.77 220.674" stroke="#000000" stroke-width="0.867658" stroke-linecap="round" stroke-linejoin="round" fill="none" transform="matrix(-1.83745e-16 -1.00026 1 -1.83697e-16 0.342324 252)"/><path d="M157.299 220.674 157.299 220.674" stroke="#000000" stroke-width="0.867658" stroke-linecap="round" stroke-linejoin="round" fill="none" transform="matrix(-1.83745e-16 -1.00026 1 -1.83697e-16 0.342324 252)"/><path d="M153.829 220.674 153.829 220.674" stroke="#000000" stroke-width="0.867658" stroke-linecap="round" stroke-linejoin="round" fill="none" transform="matrix(-1.83745e-16 -1.00026 1 -1.83697e-16 0.342324 252)"/><path d="M150.358 220.674 150.358 220.674" stroke="#000000" stroke-width="0.867658" stroke-linecap="round" stroke-linejoin="round" fill="none" transform="matrix(-1.83745e-16 -1.00026 1 -1.83697e-16 0.342324 252)"/><path d="M146.887 220.674 146.887 220.674" stroke="#000000" stroke-width="0.867658" stroke-linecap="round" stroke-linejoin="round" fill="none" transform="matrix(-1.83745e-16 -1.00026 1 -1.83697e-16 0.342324 252)"/><path d="M143.417 220.674 143.417 220.674" stroke="#000000" stroke-width="0.867658" stroke-linecap="round" stroke-linejoin="round" fill="none" transform="matrix(-1.83745e-16 -1.00026 1 -1.83697e-16 0.342324 252)"/><path d="M139.946 220.674 139.946 220.674" stroke="#000000" stroke-width="0.867658" stroke-linecap="round" stroke-linejoin="round" fill="none" transform="matrix(-1.83745e-16 -1.00026 1 -1.83697e-16 0.342324 252)"/><path d="M136.475 220.674 136.475 220.674" stroke="#000000" stroke-width="0.867658" stroke-linecap="round" stroke-linejoin="round" fill="none" transform="matrix(-1.83745e-16 -1.00026 1 -1.83697e-16 0.342324 252)"/><path d="M133.005 220.674 133.005 220.674" stroke="#000000" stroke-width="0.867658" stroke-linecap="round" stroke-linejoin="round" fill="none" transform="matrix(-1.83745e-16 -1.00026 1 -1.83697e-16 0.342324 252)"/><path d="M129.534 220.674 129.534 220.674" stroke="#000000" stroke-width="0.867658" stroke-linecap="round" stroke-linejoin="round" fill="none" transform="matrix(-1.83745e-16 -1.00026 1 -1.83697e-16 0.342324 252)"/><path d="M126.063 220.674 126.063 220.674" stroke="#000000" stroke-width="0.867658" stroke-linecap="round" stroke-linejoin="round" fill="none" transform="matrix(-1.83745e-16 -1.00026 1 -1.83697e-16 0.342324 252)"/><path d="M122.593 220.674 122.593 220.674" stroke="#000000" stroke-width="0.867658" stroke-linecap="round" stroke-linejoin="round" fill="none" transform="matrix(-1.83745e-16 -1.00026 1 -1.83697e-16 0.342324 252)"/><path d="M119.122 220.674 119.122 220.674" stroke="#000000" stroke-width="0.867658" stroke-linecap="round" stroke-linejoin="round" fill="none" transform="matrix(-1.83745e-16 -1.00026 1 -1.83697e-16 0.342324 252)"/><path d="M115.652 220.674 115.652 220.674" stroke="#000000" stroke-width="0.867658" stroke-linecap="round" stroke-linejoin="round" fill="none" transform="matrix(-1.83745e-16 -1.00026 1 -1.83697e-16 0.342324 252)"/><path d="M112.181 220.674 112.181 220.674" stroke="#000000" stroke-width="0.867658" stroke-linecap="round" stroke-linejoin="round" fill="none" transform="matrix(-1.83745e-16 -1.00026 1 -1.83697e-16 0.342324 252)"/><path d="M108.71 220.674 108.71 220.674" stroke="#000000" stroke-width="0.867658" stroke-linecap="round" stroke-linejoin="round" fill="none" transform="matrix(-1.83745e-16 -1.00026 1 -1.83697e-16 0.342324 252)"/><path d="M105.24 220.674 105.24 220.674" stroke="#000000" stroke-width="0.867658" stroke-linecap="round" stroke-linejoin="round" fill="none" transform="matrix(-1.83745e-16 -1.00026 1 -1.83697e-16 0.342324 252)"/><path d="M101.769 220.674 101.769 220.674" stroke="#000000" stroke-width="0.867658" stroke-linecap="round" stroke-linejoin="round" fill="none" transform="matrix(-1.83745e-16 -1.00026 1 -1.83697e-16 0.342324 252)"/><path d="M98.2984 220.674 98.2984 220.674" stroke="#000000" stroke-width="0.867658" stroke-linecap="round" stroke-linejoin="round" fill="none" transform="matrix(-1.83745e-16 -1.00026 1 -1.83697e-16 0.342324 252)"/><path d="M94.8278 220.674 94.8278 220.674" stroke="#000000" stroke-width="0.867658" stroke-linecap="round" stroke-linejoin="round" fill="none" transform="matrix(-1.83745e-16 -1.00026 1 -1.83697e-16 0.342324 252)"/><path d="M91.3571 220.674 91.3571 220.674" stroke="#000000" stroke-width="0.867658" stroke-linecap="round" stroke-linejoin="round" fill="none" transform="matrix(-1.83745e-16 -1.00026 1 -1.83697e-16 0.342324 252)"/><path d="M87.8865 220.674 87.8865 220.674" stroke="#000000" stroke-width="0.867658" stroke-linecap="round" stroke-linejoin="round" fill="none" transform="matrix(-1.83745e-16 -1.00026 1 -1.83697e-16 0.342324 252)"/><path d="M84.4159 220.674 84.4159 220.674" stroke="#000000" stroke-width="0.867658" stroke-linecap="round" stroke-linejoin="round" fill="none" transform="matrix(-1.83745e-16 -1.00026 1 -1.83697e-16 0.342324 252)"/><path d="M80.9452 220.674 80.9452 220.674" stroke="#000000" stroke-width="0.867658" stroke-linecap="round" stroke-linejoin="round" fill="none" transform="matrix(-1.83745e-16 -1.00026 1 -1.83697e-16 0.342324 252)"/><path d="M77.4746 220.674 77.4746 220.674" stroke="#000000" stroke-width="0.867658" stroke-linecap="round" stroke-linejoin="round" fill="none" transform="matrix(-1.83745e-16 -1.00026 1 -1.83697e-16 0.342324 252)"/><path d="M74.004 220.674 74.004 220.674" stroke="#000000" stroke-width="0.867658" stroke-linecap="round" stroke-linejoin="round" fill="none" transform="matrix(-1.83745e-16 -1.00026 1 -1.83697e-16 0.342324 252)"/><path d="M70.5334 220.674 70.5334 220.674" stroke="#000000" stroke-width="0.867658" stroke-linecap="round" stroke-linejoin="round" fill="none" transform="matrix(-1.83745e-16 -1.00026 1 -1.83697e-16 0.342324 252)"/><path d="M67.0627 220.674 67.0627 220.674" stroke="#000000" stroke-width="0.867658" stroke-linecap="round" stroke-linejoin="round" fill="none" transform="matrix(-1.83745e-16 -1.00026 1 -1.83697e-16 0.342324 252)"/><path d="M63.5921 220.674 63.5921 220.674" stroke="#000000" stroke-width="0.867658" stroke-linecap="round" stroke-linejoin="round" fill="none" transform="matrix(-1.83745e-16 -1.00026 1 -1.83697e-16 0.342324 252)"/><path d="M60.1215 220.674 60.1215 220.674" stroke="#000000" stroke-width="0.867658" stroke-linecap="round" stroke-linejoin="round" fill="none" transform="matrix(-1.83745e-16 -1.00026 1 -1.83697e-16 0.342324 252)"/><path d="M56.6508 220.674 56.6508 220.674" stroke="#000000" stroke-width="0.867658" stroke-linecap="round" stroke-linejoin="round" fill="none" transform="matrix(-1.83745e-16 -1.00026 1 -1.83697e-16 0.342324 252)"/><path d="M53.1802 220.674 53.1802 220.674" stroke="#000000" stroke-width="0.867658" stroke-linecap="round" stroke-linejoin="round" fill="none" transform="matrix(-1.83745e-16 -1.00026 1 -1.83697e-16 0.342324 252)"/><path d="M49.7096 220.674 49.7096 220.674" stroke="#000000" stroke-width="0.867658" stroke-linecap="round" stroke-linejoin="round" fill="none" transform="matrix(-1.83745e-16 -1.00026 1 -1.83697e-16 0.342324 252)"/><path d="M46.2389 220.674 46.2389 220.674" stroke="#000000" stroke-width="0.867658" stroke-linecap="round" stroke-linejoin="round" fill="none" transform="matrix(-1.83745e-16 -1.00026 1 -1.83697e-16 0.342324 252)"/><path d="M42.7683 220.674 42.7683 220.674" stroke="#000000" stroke-width="0.867658" stroke-linecap="round" stroke-linejoin="round" fill="none" transform="matrix(-1.83745e-16 -1.00026 1 -1.83697e-16 0.342324 252)"/><path d="M39.2977 220.674 39.2977 220.674" stroke="#000000" stroke-width="0.867658" stroke-linecap="round" stroke-linejoin="round" fill="none" transform="matrix(-1.83745e-16 -1.00026 1 -1.83697e-16 0.342324 252)"/><path d="M35.827 220.674 35.827 220.674" stroke="#000000" stroke-width="0.867658" stroke-linecap="round" stroke-linejoin="round" fill="none" transform="matrix(-1.83745e-16 -1.00026 1 -1.83697e-16 0.342324 252)"/><path d="M32.3564 220.674 32.3564 220.674" stroke="#000000" stroke-width="0.867658" stroke-linecap="round" stroke-linejoin="round" fill="none" transform="matrix(-1.83745e-16 -1.00026 1 -1.83697e-16 0.342324 252)"/><path d="M28.8858 220.674 28.8858 220.674" stroke="#000000" stroke-width="0.867658" stroke-linecap="round" stroke-linejoin="round" fill="none" transform="matrix(-1.83745e-16 -1.00026 1 -1.83697e-16 0.342324 252)"/><path d="M25.4151 220.674 25.4151 220.674" stroke="#000000" stroke-width="0.867658" stroke-linecap="round" stroke-linejoin="round" fill="none" transform="matrix(-1.83745e-16 -1.00026 1 -1.83697e-16 0.342324 252)"/><path d="M21.9445 220.674 21.9445 220.674" stroke="#000000" stroke-width="0.867658" stroke-linecap="round" stroke-linejoin="round" fill="none" transform="matrix(-1.83745e-16 -1.00026 1 -1.83697e-16 0.342324 252)"/><path d="M18.4739 220.674 18.4739 220.674" stroke="#000000" stroke-width="0.867658" stroke-linecap="round" stroke-linejoin="round" fill="none" transform="matrix(-1.83745e-16 -1.00026 1 -1.83697e-16 0.342324 252)"/><path d="M30.0427 252.055 35.827 252.055" stroke="#000000" stroke-width="0.867658" stroke-linecap="round" stroke-linejoin="round" fill="none" transform="matrix(-1.83745e-16 -1.00026 1 -1.83697e-16 0.342324 252)"/><path d="M69.3042 217.782 115.579 217.782" stroke="#000000" stroke-width="0.867658" stroke-linecap="round" stroke-linejoin="round" fill="none" transform="matrix(-1.83745e-16 -1.00026 1 -1.83697e-16 0.342324 252)"/><path d="M69.3042 223.567 115.579 223.567" stroke="#000000" stroke-width="0.867658" stroke-linecap="round" stroke-linejoin="round" fill="none" transform="matrix(-1.83745e-16 -1.00026 1 -1.83697e-16 0.342324 252)"/><path d="M346.906 496.975C350.081 496.935 352.622 494.33 352.582 491.155 352.541 487.98 349.936 485.44 346.762 485.48 343.615 485.52 341.086 488.08 341.086 491.227 341.106 494.422 343.712 496.996 346.906 496.975 346.906 496.975 346.906 496.975 346.906 496.975" stroke="#000000" stroke-width="0.867658" stroke-linecap="round" stroke-linejoin="round" fill="none" transform="matrix(-1.83745e-16 -1.00026 1 -1.83697e-16 -186.373 476.336)"/><path d="M116.82 304.548 122.593 304.548 128.377 304.548" stroke="#000000" stroke-width="0.867658" stroke-linecap="round" stroke-linejoin="round" fill="none" transform="matrix(-1.83745e-16 -1.00026 1 -1.83697e-16 0.342324 252)"/><path d="M122.593 298.764 122.593 304.548 122.593 310.332" stroke="#000000" stroke-width="0.867658" stroke-linecap="round" stroke-linejoin="round" fill="none" transform="matrix(-1.83745e-16 -1.00026 1 -1.83697e-16 0.342324 252)"/><path d="M227.435 220.674 234.882 220.674" stroke="#000000" stroke-width="0.867658" stroke-linecap="round" stroke-linejoin="round" fill="none" transform="matrix(-1.83745e-16 -1.00026 1 -1.83697e-16 0.342324 252)"/><path d="M238.353 220.674 245.8 220.674" stroke="#000000" stroke-width="0.867658" stroke-linecap="round" stroke-linejoin="round" fill="none" transform="matrix(-1.83745e-16 -1.00026 1 -1.83697e-16 0.342324 252)"/><path d="M123.316 304.548 130.763 304.548" stroke="#000000" stroke-width="0.867658" stroke-linecap="round" stroke-linejoin="round" fill="none" transform="matrix(-1.83745e-16 -1.00026 1 -1.83697e-16 0.342324 252)"/><path d="M134.234 304.548 148.116 304.548" stroke="#000000" stroke-width="0.867658" stroke-linecap="round" stroke-linejoin="round" fill="none" transform="matrix(-1.83745e-16 -1.00026 1 -1.83697e-16 0.342324 252)"/><path d="M151.587 304.548 165.47 304.548" stroke="#000000" stroke-width="0.867658" stroke-linecap="round" stroke-linejoin="round" fill="none" transform="matrix(-1.83745e-16 -1.00026 1 -1.83697e-16 0.342324 252)"/><path d="M168.94 304.548 182.823 304.548" stroke="#000000" stroke-width="0.867658" stroke-linecap="round" stroke-linejoin="round" fill="none" transform="matrix(-1.83745e-16 -1.00026 1 -1.83697e-16 0.342324 252)"/><path d="M186.293 304.548 200.176 304.548" stroke="#000000" stroke-width="0.867658" stroke-linecap="round" stroke-linejoin="round" fill="none" transform="matrix(-1.83745e-16 -1.00026 1 -1.83697e-16 0.342324 252)"/><path d="M203.647 304.548 217.529 304.548" stroke="#000000" stroke-width="0.867658" stroke-linecap="round" stroke-linejoin="round" fill="none" transform="matrix(-1.83745e-16 -1.00026 1 -1.83697e-16 0.342324 252)"/><path d="M221 304.548 234.882 304.548" stroke="#000000" stroke-width="0.867658" stroke-linecap="round" stroke-linejoin="round" fill="none" transform="matrix(-1.83745e-16 -1.00026 1 -1.83697e-16 0.342324 252)"/><path d="M238.353 304.548 245.8 304.548" stroke="#000000" stroke-width="0.867658" stroke-linecap="round" stroke-linejoin="round" fill="none" transform="matrix(-1.83745e-16 -1.00026 1 -1.83697e-16 0.342324 252)"/><path d="M243.776 222.771 243.776 230.725" stroke="#000000" stroke-width="0.867658" stroke-linecap="round" stroke-linejoin="round" fill="none" transform="matrix(-1.83745e-16 -1.00026 1 -1.83697e-16 0.342324 252)"/><path d="M243.776 234.195 243.776 242.149" stroke="#000000" stroke-width="0.867658" stroke-linecap="round" stroke-linejoin="round" fill="none" transform="matrix(-1.83745e-16 -1.00026 1 -1.83697e-16 0.342324 252)"/><path d="M243.776 302.451 243.776 294.57" stroke="#000000" stroke-width="0.867658" stroke-linecap="round" stroke-linejoin="round" fill="none" transform="matrix(-1.83745e-16 -1.00026 1 -1.83697e-16 0.342324 252)"/><path d="M243.776 291.099 243.776 283.146" stroke="#000000" stroke-width="0.867658" stroke-linecap="round" stroke-linejoin="round" fill="none" transform="matrix(-1.83745e-16 -1.00026 1 -1.83697e-16 0.342324 252)"/><path d="M244.065 222.771 243.426 222.771 243.776 220.674 244.065 222.771Z" transform="matrix(-1.83745e-16 -1.00026 1 -1.83697e-16 0.342324 252)"/><path d="M244.065 302.451 243.426 302.451 243.776 304.548 244.065 302.451Z" transform="matrix(-1.83745e-16 -1.00026 1 -1.83697e-16 0.342324 252)"/></g><g clip-path="url(#clip2)"><text font-family="Arial,Arial_MSFontService,sans-serif" font-weight="400" font-size="13" transform="matrix(1.20508 -2.95179e-16 2.95217e-16 1.2054 242.78 14)">7.<tspan font-size="13" x="11" y="2.6937e-15">250</tspan></text></g><g clip-path="url(#clip3)"><text font-family="Arial,Arial_MSFontService,sans-serif" font-weight="400" font-size="13" transform="matrix(1.20508 -2.95179e-16 2.95217e-16 1.2054 438.22 69)">Tracking<tspan font-size="13" x="-0.360007" y="16.5921">Center</tspan></text><path d="M130.775 312.935 122.593 304.548 133.017 309.826 130.775 312.935Z" transform="matrix(-1.83745e-16 -1.00026 1 -1.83697e-16 0.342324 252)"/><path d="M131.92 311.417 137.777 315.755" stroke="#000000" stroke-width="0.867658" stroke-linecap="round" stroke-linejoin="round" fill="none" transform="matrix(-1.83745e-16 -1.00026 1 -1.83697e-16 0.342324 252)"/><path d="M140.597 317.78 151.732 326.022" stroke="#000000" stroke-width="0.867658" stroke-linecap="round" stroke-linejoin="round" fill="none" transform="matrix(-1.83745e-16 -1.00026 1 -1.83697e-16 0.342324 252)"/><path d="M154.552 328.047 165.759 336.29" stroke="#000000" stroke-width="0.867658" stroke-linecap="round" stroke-linejoin="round" fill="none" transform="matrix(-1.83745e-16 -1.00026 1 -1.83697e-16 0.342324 252)"/><path d="M168.579 338.314 179.714 346.557" stroke="#000000" stroke-width="0.867658" stroke-linecap="round" stroke-linejoin="round" fill="none" transform="matrix(-1.83745e-16 -1.00026 1 -1.83697e-16 0.342324 252)"/><path d="M182.534 348.582 188.402 352.92 188.402 364.922" stroke="#000000" stroke-width="0.867658" stroke-linecap="round" stroke-linejoin="round" fill="none" transform="matrix(-1.83745e-16 -1.00026 1 -1.83697e-16 0.342324 252)"/><path d="M188.39 368.393 188.39 382.276" stroke="#000000" stroke-width="0.867658" stroke-linecap="round" stroke-linejoin="round" fill="none" transform="matrix(-1.83745e-16 -1.00026 1 -1.83697e-16 0.342324 252)"/><path d="M188.39 385.746 188.39 399.629" stroke="#000000" stroke-width="0.867658" stroke-linecap="round" stroke-linejoin="round" fill="none" transform="matrix(-1.83745e-16 -1.00026 1 -1.83697e-16 0.342324 252)"/><path d="M188.39 403.099 188.39 416.982" stroke="#000000" stroke-width="0.867658" stroke-linecap="round" stroke-linejoin="round" fill="none" transform="matrix(-1.83745e-16 -1.00026 1 -1.83697e-16 0.342324 252)"/><path d="M188.39 420.453 188.39 432.455" stroke="#000000" stroke-width="0.867658" stroke-linecap="round" stroke-linejoin="round" fill="none" transform="matrix(-1.83745e-16 -1.00026 1 -1.83697e-16 0.342324 252)"/><path d="M123.316 304.548 130.763 304.548" stroke="#000000" stroke-width="0.867658" stroke-linecap="round" stroke-linejoin="round" fill="none" transform="matrix(-1.83745e-16 -1.00026 1 -1.83697e-16 0.342324 252)"/><path d="M134.234 304.548 148.116 304.548" stroke="#000000" stroke-width="0.867658" stroke-linecap="round" stroke-linejoin="round" fill="none" transform="matrix(-1.83745e-16 -1.00026 1 -1.83697e-16 0.342324 252)"/><path d="M151.587 304.548 165.47 304.548" stroke="#000000" stroke-width="0.867658" stroke-linecap="round" stroke-linejoin="round" fill="none" transform="matrix(-1.83745e-16 -1.00026 1 -1.83697e-16 0.342324 252)"/><path d="M168.94 304.548 182.823 304.548" stroke="#000000" stroke-width="0.867658" stroke-linecap="round" stroke-linejoin="round" fill="none" transform="matrix(-1.83745e-16 -1.00026 1 -1.83697e-16 0.342324 252)"/><path d="M186.293 304.548 200.176 304.548" stroke="#000000" stroke-width="0.867658" stroke-linecap="round" stroke-linejoin="round" fill="none" transform="matrix(-1.83745e-16 -1.00026 1 -1.83697e-16 0.342324 252)"/><path d="M203.647 304.548 217.529 304.548" stroke="#000000" stroke-width="0.867658" stroke-linecap="round" stroke-linejoin="round" fill="none" transform="matrix(-1.83745e-16 -1.00026 1 -1.83697e-16 0.342324 252)"/><path d="M221 304.548 234.882 304.548" stroke="#000000" stroke-width="0.867658" stroke-linecap="round" stroke-linejoin="round" fill="none" transform="matrix(-1.83745e-16 -1.00026 1 -1.83697e-16 0.342324 252)"/><path d="M238.353 304.548 245.8 304.548" stroke="#000000" stroke-width="0.867658" stroke-linecap="round" stroke-linejoin="round" fill="none" transform="matrix(-1.83745e-16 -1.00026 1 -1.83697e-16 0.342324 252)"/><path d="M227.435 388.422 234.882 388.422" stroke="#000000" stroke-width="0.867658" stroke-linecap="round" stroke-linejoin="round" fill="none" transform="matrix(-1.83745e-16 -1.00026 1 -1.83697e-16 0.342324 252)"/><path d="M238.353 388.422 245.8 388.422" stroke="#000000" stroke-width="0.867658" stroke-linecap="round" stroke-linejoin="round" fill="none" transform="matrix(-1.83745e-16 -1.00026 1 -1.83697e-16 0.342324 252)"/><path d="M243.776 306.645 243.776 314.598" stroke="#000000" stroke-width="0.867658" stroke-linecap="round" stroke-linejoin="round" fill="none" transform="matrix(-1.83745e-16 -1.00026 1 -1.83697e-16 0.342324 252)"/><path d="M243.776 318.069 243.776 326.022" stroke="#000000" stroke-width="0.867658" stroke-linecap="round" stroke-linejoin="round" fill="none" transform="matrix(-1.83745e-16 -1.00026 1 -1.83697e-16 0.342324 252)"/><path d="M243.776 386.397 243.776 378.443" stroke="#000000" stroke-width="0.867658" stroke-linecap="round" stroke-linejoin="round" fill="none" transform="matrix(-1.83745e-16 -1.00026 1 -1.83697e-16 0.342324 252)"/><path d="M243.776 374.973 243.776 367.019" stroke="#000000" stroke-width="0.867658" stroke-linecap="round" stroke-linejoin="round" fill="none" transform="matrix(-1.83745e-16 -1.00026 1 -1.83697e-16 0.342324 252)"/><path d="M244.065 306.645 243.426 306.645 243.776 304.548 244.065 306.645Z" transform="matrix(-1.83745e-16 -1.00026 1 -1.83697e-16 0.342324 252)"/><path d="M244.065 386.397 243.426 386.397 243.776 388.422 244.065 386.397Z" transform="matrix(-1.83745e-16 -1.00026 1 -1.83697e-16 0.342324 252)"/><text font-family="Arial,Arial_MSFontService,sans-serif" font-weight="400" font-size="13" transform="matrix(1.20508 -2.95179e-16 2.95217e-16 1.2054 326.654 14)">7<tspan font-size="13" x="7.00001" y="1.71417e-15">.</tspan><tspan font-size="13" x="11" y="2.6937e-15">250</tspan></text><path d="M122.593 305.271 122.593 314.381" stroke="#000000" stroke-width="0.867658" stroke-linecap="round" stroke-linejoin="round" fill="none" transform="matrix(-1.83745e-16 -1.00026 1 -1.83697e-16 0.342324 252)"/><path d="M122.593 317.852 122.593 331.735" stroke="#000000" stroke-width="0.867658" stroke-linecap="round" stroke-linejoin="round" fill="none" transform="matrix(-1.83745e-16 -1.00026 1 -1.83697e-16 0.342324 252)"/><path d="M122.593 335.205 122.593 349.088" stroke="#000000" stroke-width="0.867658" stroke-linecap="round" stroke-linejoin="round" fill="none" transform="matrix(-1.83745e-16 -1.00026 1 -1.83697e-16 0.342324 252)"/><path d="M122.593 352.558 122.593 366.441" stroke="#000000" stroke-width="0.867658" stroke-linecap="round" stroke-linejoin="round" fill="none" transform="matrix(-1.83745e-16 -1.00026 1 -1.83697e-16 0.342324 252)"/><path d="M122.593 369.911 122.593 383.794" stroke="#000000" stroke-width="0.867658" stroke-linecap="round" stroke-linejoin="round" fill="none" transform="matrix(-1.83745e-16 -1.00026 1 -1.83697e-16 0.342324 252)"/><path d="M122.593 387.265 122.593 401.147" stroke="#000000" stroke-width="0.867658" stroke-linecap="round" stroke-linejoin="round" fill="none" transform="matrix(-1.83745e-16 -1.00026 1 -1.83697e-16 0.342324 252)"/><path d="M122.593 404.618 122.593 418.5" stroke="#000000" stroke-width="0.867658" stroke-linecap="round" stroke-linejoin="round" fill="none" transform="matrix(-1.83745e-16 -1.00026 1 -1.83697e-16 0.342324 252)"/><path d="M122.593 421.971 122.593 435.853" stroke="#000000" stroke-width="0.867658" stroke-linecap="round" stroke-linejoin="round" fill="none" transform="matrix(-1.83745e-16 -1.00026 1 -1.83697e-16 0.342324 252)"/><path d="M122.593 439.324 122.593 448.435" stroke="#000000" stroke-width="0.867658" stroke-linecap="round" stroke-linejoin="round" fill="none" transform="matrix(-1.83745e-16 -1.00026 1 -1.83697e-16 0.342324 252)"/><path d="M32.9348 409.39 32.9348 418.5" stroke="#000000" stroke-width="0.867658" stroke-linecap="round" stroke-linejoin="round" fill="none" transform="matrix(-1.83745e-16 -1.00026 1 -1.83697e-16 0.342324 252)"/><path d="M32.9348 421.971 32.9348 435.853" stroke="#000000" stroke-width="0.867658" stroke-linecap="round" stroke-linejoin="round" fill="none" transform="matrix(-1.83745e-16 -1.00026 1 -1.83697e-16 0.342324 252)"/><path d="M32.9348 439.324 32.9348 448.435" stroke="#000000" stroke-width="0.867658" stroke-linecap="round" stroke-linejoin="round" fill="none" transform="matrix(-1.83745e-16 -1.00026 1 -1.83697e-16 0.342324 252)"/><path d="M120.496 446.41 112.976 446.41" stroke="#000000" stroke-width="0.867658" stroke-linecap="round" stroke-linejoin="round" fill="none" transform="matrix(-1.83745e-16 -1.00026 1 -1.83697e-16 0.342324 252)"/><path d="M109.506 446.41 95.6231 446.41" stroke="#000000" stroke-width="0.867658" stroke-linecap="round" stroke-linejoin="round" fill="none" transform="matrix(-1.83745e-16 -1.00026 1 -1.83697e-16 0.342324 252)"/><path d="M92.1525 446.41 84.7051 446.41" stroke="#000000" stroke-width="0.867658" stroke-linecap="round" stroke-linejoin="round" fill="none" transform="matrix(-1.83745e-16 -1.00026 1 -1.83697e-16 0.342324 252)"/><path d="M35.0317 446.41 42.4791 446.41" stroke="#000000" stroke-width="0.867658" stroke-linecap="round" stroke-linejoin="round" fill="none" transform="matrix(-1.83745e-16 -1.00026 1 -1.83697e-16 0.342324 252)"/><path d="M45.9497 446.41 59.8322 446.41" stroke="#000000" stroke-width="0.867658" stroke-linecap="round" stroke-linejoin="round" fill="none" transform="matrix(-1.83745e-16 -1.00026 1 -1.83697e-16 0.342324 252)"/><path d="M63.3029 446.41 70.8226 446.41" stroke="#000000" stroke-width="0.867658" stroke-linecap="round" stroke-linejoin="round" fill="none" transform="matrix(-1.83745e-16 -1.00026 1 -1.83697e-16 0.342324 252)"/><path d="M120.508 446.048 120.508 446.699 122.593 446.41 120.508 446.048Z" transform="matrix(-1.83745e-16 -1.00026 1 -1.83697e-16 0.342324 252)"/><path d="M35.0317 446.048 35.0317 446.699 32.9469 446.41 35.0317 446.048Z" transform="matrix(-1.83745e-16 -1.00026 1 -1.83697e-16 0.342324 252)"/><text font-family="Arial,Arial_MSFontService,sans-serif" font-weight="400" font-size="13" transform="matrix(1.20508 -2.95179e-16 2.95217e-16 1.2054 426.507 180)">7<tspan font-size="13" x="6.99999" y="1.71417e-15">.</tspan><tspan font-size="13" x="11" y="2.6937e-15">750</tspan><tspan font-size="13" x="2.34" y="55.5834">Back Tracking Wheel</tspan></text><path d="M22.3181 307.151 30.0427 298.33 25.5598 309.175 22.3181 307.151Z" transform="matrix(-1.83745e-16 -1.00026 1 -1.83697e-16 0.342324 252)"/><path d="M23.969 308.163 17.5339 318.503" stroke="#000000" stroke-width="0.867658" stroke-linecap="round" stroke-linejoin="round" fill="none" transform="matrix(-1.83745e-16 -1.00026 1 -1.83697e-16 0.342324 252)"/><path d="M15.7263 321.467 9.29117 331.807 9.29117 341.64" stroke="#000000" stroke-width="0.867658" stroke-linecap="round" stroke-linejoin="round" fill="none" transform="matrix(-1.83745e-16 -1.00026 1 -1.83697e-16 0.342324 252)"/><path d="M9.29117 345.111 9.29117 358.993" stroke="#000000" stroke-width="0.867658" stroke-linecap="round" stroke-linejoin="round" fill="none" transform="matrix(-1.83745e-16 -1.00026 1 -1.83697e-16 0.342324 252)"/><path d="M9.29117 362.464 9.29117 376.347" stroke="#000000" stroke-width="0.867658" stroke-linecap="round" stroke-linejoin="round" fill="none" transform="matrix(-1.83745e-16 -1.00026 1 -1.83697e-16 0.342324 252)"/><path d="M9.29117 379.817 9.29117 393.7" stroke="#000000" stroke-width="0.867658" stroke-linecap="round" stroke-linejoin="round" fill="none" transform="matrix(-1.83745e-16 -1.00026 1 -1.83697e-16 0.342324 252)"/><path d="M9.29117 397.17 9.29117 411.053" stroke="#000000" stroke-width="0.867658" stroke-linecap="round" stroke-linejoin="round" fill="none" transform="matrix(-1.83745e-16 -1.00026 1 -1.83697e-16 0.342324 252)"/><path d="M9.29117 414.524 9.29117 424.357" stroke="#000000" stroke-width="0.867658" stroke-linecap="round" stroke-linejoin="round" fill="none" transform="matrix(-1.83745e-16 -1.00026 1 -1.83697e-16 0.342324 252)"/><text font-family="Arial,Arial_MSFontService,sans-serif" font-weight="400" font-size="13" transform="matrix(1.20508 -2.95179e-16 2.95217e-16 1.2054 0.342324 91)">Left Tracking<tspan font-size="13" x="39.54" y="16.5921">Wheel</tspan></text><path d="M126.726 214.022 115.591 217.782 124.834 210.624 126.726 214.022Z" transform="matrix(-1.83745e-16 -1.00026 1 -1.83697e-16 0.342324 252)"/><path d="M125.774 212.359 136.909 206.43" stroke="#000000" stroke-width="0.867658" stroke-linecap="round" stroke-linejoin="round" fill="none" transform="matrix(-1.83745e-16 -1.00026 1 -1.83697e-16 0.342324 252)"/><path d="M139.946 204.767 152.165 198.26" stroke="#000000" stroke-width="0.867658" stroke-linecap="round" stroke-linejoin="round" fill="none" transform="matrix(-1.83745e-16 -1.00026 1 -1.83697e-16 0.342324 252)"/><path d="M155.275 196.597 166.337 190.668 166.337 180.834" stroke="#000000" stroke-width="0.867658" stroke-linecap="round" stroke-linejoin="round" fill="none" transform="matrix(-1.83745e-16 -1.00026 1 -1.83697e-16 0.342324 252)"/><path d="M166.337 177.364 166.337 163.481" stroke="#000000" stroke-width="0.867658" stroke-linecap="round" stroke-linejoin="round" fill="none" transform="matrix(-1.83745e-16 -1.00026 1 -1.83697e-16 0.342324 252)"/><path d="M166.337 160.011 166.337 146.128" stroke="#000000" stroke-width="0.867658" stroke-linecap="round" stroke-linejoin="round" fill="none" transform="matrix(-1.83745e-16 -1.00026 1 -1.83697e-16 0.342324 252)"/><path d="M166.337 142.657 166.337 128.775" stroke="#000000" stroke-width="0.867658" stroke-linecap="round" stroke-linejoin="round" fill="none" transform="matrix(-1.83745e-16 -1.00026 1 -1.83697e-16 0.342324 252)"/><path d="M166.337 125.304 166.337 111.422" stroke="#000000" stroke-width="0.867658" stroke-linecap="round" stroke-linejoin="round" fill="none" transform="matrix(-1.83745e-16 -1.00026 1 -1.83697e-16 0.342324 252)"/><path d="M166.337 107.951 166.337 98.1176" stroke="#000000" stroke-width="0.867658" stroke-linecap="round" stroke-linejoin="round" fill="none" transform="matrix(-1.83745e-16 -1.00026 1 -1.83697e-16 0.342324 252)"/><text font-family="Arial,Arial_MSFontService,sans-serif" font-weight="400" font-size="13" transform="matrix(1.20508 -2.95179e-16 2.95217e-16 1.2054 517.466 117)">Right Tracking<tspan font-size="13" x="0.900019" y="15.7625">Wheel</tspan></text><path d="M121.737 401.364 115.591 391.314 124.629 398.833 121.737 401.364Z" transform="matrix(-1.83745e-16 -1.00026 1 -1.83697e-16 0.342324 252)"/><path d="M123.171 400.063 130.691 408.739" stroke="#000000" stroke-width="0.867658" stroke-linecap="round" stroke-linejoin="round" fill="none" transform="matrix(-1.83745e-16 -1.00026 1 -1.83697e-16 0.342324 252)"/><path d="M132.932 411.414 140.464 420.091 140.464 429.924" stroke="#000000" stroke-width="0.867658" stroke-linecap="round" stroke-linejoin="round" fill="none" transform="matrix(-1.83745e-16 -1.00026 1 -1.83697e-16 0.342324 252)"/><path d="M140.452 433.395 140.452 447.278" stroke="#000000" stroke-width="0.867658" stroke-linecap="round" stroke-linejoin="round" fill="none" transform="matrix(-1.83745e-16 -1.00026 1 -1.83697e-16 0.342324 252)"/><path d="M140.452 450.748 140.452 464.631" stroke="#000000" stroke-width="0.867658" stroke-linecap="round" stroke-linejoin="round" fill="none" transform="matrix(-1.83745e-16 -1.00026 1 -1.83697e-16 0.342324 252)"/><path d="M140.452 468.101 140.452 481.984" stroke="#000000" stroke-width="0.867658" stroke-linecap="round" stroke-linejoin="round" fill="none" transform="matrix(-1.83745e-16 -1.00026 1 -1.83697e-16 0.342324 252)"/><path d="M140.452 485.455 140.452 499.337" stroke="#000000" stroke-width="0.867658" stroke-linecap="round" stroke-linejoin="round" fill="none" transform="matrix(-1.83745e-16 -1.00026 1 -1.83697e-16 0.342324 252)"/><path d="M140.452 502.808 140.452 512.641" stroke="#000000" stroke-width="0.867658" stroke-linecap="round" stroke-linejoin="round" fill="none" transform="matrix(-1.83745e-16 -1.00026 1 -1.83697e-16 0.342324 252)"/></g></g></svg>